<svg width="90" height="90" viewBox="0 0 90 90" fill="none" xmlns="http://www.w3.org/2000/svg">
<rect width="10" height="10" fill="#233651"/>
<rect y="20" width="10" height="10" fill="#233651"/>
<rect y="40" width="10" height="10" fill="#233651"/>
<rect y="60" width="10" height="10" fill="#233651"/>
<rect y="80" width="10" height="10" fill="#233651"/>
<rect x="20" width="10" height="10" fill="#233651"/>
<rect x="20" y="20" width="10" height="10" fill="#233651"/>
<rect x="20" y="40" width="10" height="10" fill="#233651"/>
<rect x="20" y="60" width="10" height="10" fill="#233651"/>
<rect x="20" y="80" width="10" height="10" fill="#233651"/>
<rect x="40" width="10" height="10" fill="#233651"/>
<rect x="40" y="20" width="10" height="10" fill="#233651"/>
<rect x="40" y="40" width="10" height="10" fill="#233651"/>
<rect x="40" y="60" width="10" height="10" fill="#233651"/>
<rect x="40" y="80" width="10" height="10" fill="#233651"/>
<rect x="60" width="10" height="10" fill="#233651"/>
<rect x="60" y="20" width="10" height="10" fill="#233651"/>
<rect x="60" y="40" width="10" height="10" fill="#233651"/>
<rect x="60" y="60" width="10" height="10" fill="#233651"/>
<rect x="60" y="80" width="10" height="10" fill="#233651"/>
<rect x="80" width="10" height="10" fill="#233651"/>
<rect x="80" y="20" width="10" height="10" fill="#233651"/>
<rect x="80" y="40" width="10" height="10" fill="#233651"/>
<rect x="80" y="60" width="10" height="10" fill="#233651"/>
<rect x="80" y="80" width="10" height="10" fill="#233651"/>
</svg>
