<svg width="727" height="500" viewBox="0 0 727 500" fill="none" xmlns="http://www.w3.org/2000/svg">
<g clip-path="url(#clip0_102_2478)">
<path d="M179.335 237.283C179.348 236.98 179.493 236.847 179.771 236.847L187.89 237.089C188.689 237.113 189.379 237.234 189.935 237.452C190.492 237.67 190.939 237.973 191.278 238.36C191.617 238.747 191.847 239.195 191.992 239.739C192.137 240.272 192.198 240.864 192.174 241.518L192.101 243.744C192.077 244.398 191.98 244.991 191.811 245.511C191.641 246.031 191.375 246.479 191.012 246.842C190.649 247.205 190.189 247.471 189.621 247.665C189.052 247.846 188.362 247.931 187.564 247.907L183.195 247.774L182.288 245.22H182.167L182.094 247.749L179.033 247.653L179.335 237.283ZM182.167 244.942L187.358 245.099C187.939 245.112 188.362 245.003 188.616 244.749C188.87 244.494 189.003 244.047 189.028 243.393L189.088 241.578C189.112 240.901 189.003 240.441 188.761 240.187C188.519 239.933 188.108 239.8 187.527 239.788L182.566 239.63C182.494 239.63 182.445 239.654 182.397 239.691C182.36 239.739 182.336 239.788 182.336 239.848L182.167 244.942Z" fill="#F1F1F4"/>
<path d="M196.566 241.917H196.457L196.36 245.16C196.36 245.293 196.421 245.366 196.566 245.378L205.69 245.656L205.605 248.463L193.638 248.1C193.347 248.088 193.214 247.943 193.214 247.64L193.517 237.706C193.529 237.404 193.674 237.271 193.965 237.271L205.593 237.622C205.895 237.634 206.04 237.779 206.028 238.081L205.944 240.889L203.076 241.857H202.955L203.003 240.417C203.003 240.308 202.955 240.247 202.858 240.247L196.723 240.066C196.639 240.066 196.59 240.09 196.566 240.126C196.542 240.175 196.53 240.223 196.53 240.272L196.493 241.627L201.551 241.784L201.479 243.986L197.244 243.853L196.566 241.917Z" fill="#F1F1F4"/>
<path d="M216.846 241.724H216.725L216.761 240.538C216.761 240.417 216.713 240.356 216.592 240.356L210.88 240.187C210.675 240.187 210.53 240.223 210.445 240.308C210.36 240.393 210.324 240.526 210.312 240.695L210.3 240.961C210.288 241.167 210.324 241.3 210.396 241.361C210.469 241.421 210.602 241.469 210.796 241.506L217.487 242.643C217.911 242.716 218.274 242.825 218.564 242.946C218.854 243.079 219.096 243.248 219.278 243.454C219.459 243.66 219.58 243.914 219.653 244.216C219.726 244.519 219.75 244.87 219.738 245.281L219.714 246.14C219.701 246.588 219.629 246.975 219.508 247.314C219.387 247.653 219.205 247.931 218.951 248.161C218.697 248.391 218.358 248.548 217.959 248.657C217.548 248.766 217.051 248.814 216.459 248.79L206.827 248.5L206.912 245.692L215.551 245.959C215.805 245.971 215.987 245.922 216.071 245.838C216.156 245.741 216.204 245.583 216.217 245.341L216.229 245.039C216.229 244.845 216.204 244.712 216.144 244.64C216.083 244.567 215.962 244.507 215.769 244.482L209.307 243.466C208.872 243.393 208.497 243.297 208.194 243.163C207.892 243.03 207.638 242.873 207.444 242.667C207.25 242.462 207.117 242.22 207.033 241.929C206.948 241.639 206.924 241.3 206.936 240.901L206.96 240.138C206.984 239.352 207.214 238.759 207.638 238.336C208.073 237.912 208.763 237.718 209.743 237.755L219.363 238.045C219.665 238.057 219.822 238.215 219.81 238.529L219.738 240.756L216.846 241.724Z" fill="#F1F1F4"/>
<path d="M220.911 248.923L221.238 238.106L224.299 238.202L223.973 249.02L220.911 248.923Z" fill="#F1F1F4"/>
<path d="M235.335 244.724C235.335 244.567 235.335 244.398 235.323 244.228C235.31 244.059 235.298 243.902 235.286 243.768V243.635L238.323 243.732L238.166 249.044C238.154 249.322 238.033 249.455 237.779 249.443L229.636 249.201C228.837 249.177 228.147 249.056 227.591 248.838C227.034 248.621 226.586 248.318 226.248 247.931C225.909 247.544 225.667 247.096 225.534 246.551C225.388 246.019 225.328 245.426 225.352 244.773L225.425 242.546C225.449 241.893 225.546 241.3 225.715 240.78C225.884 240.259 226.151 239.812 226.514 239.449C226.877 239.086 227.337 238.82 227.905 238.626C228.474 238.444 229.164 238.36 229.962 238.384L238.057 238.626C238.348 238.638 238.481 238.783 238.481 239.086L238.408 241.421L235.54 242.377H235.419L235.456 241.336C235.456 241.24 235.419 241.191 235.323 241.179L230.156 241.022C229.853 241.01 229.611 241.034 229.406 241.082C229.2 241.131 229.031 241.215 228.897 241.348C228.764 241.482 228.668 241.651 228.595 241.881C228.534 242.099 228.486 242.377 228.474 242.704L228.413 244.603C228.389 245.257 228.498 245.717 228.74 245.983C228.982 246.249 229.394 246.394 229.974 246.406L235.105 246.564C235.214 246.564 235.274 246.515 235.274 246.394L235.335 244.724Z" fill="#F1F1F4"/>
<path d="M244.797 238.82C245.027 238.832 245.184 238.868 245.281 238.941C245.378 239.013 245.45 239.122 245.535 239.279L249.407 247.181C249.468 247.302 249.564 247.362 249.685 247.362H249.843C250 247.362 250.085 247.29 250.085 247.132L250.327 238.989L253.11 239.074L252.795 249.468C252.783 249.758 252.638 249.891 252.372 249.879L247.967 249.746C247.761 249.746 247.604 249.71 247.507 249.637C247.398 249.576 247.314 249.455 247.229 249.286L243.212 241.397C243.151 241.276 243.067 241.215 242.933 241.215H242.788C242.631 241.215 242.546 241.288 242.546 241.445L242.304 249.576L239.521 249.492L239.836 239.11C239.848 238.807 239.993 238.674 240.259 238.674L244.797 238.82Z" fill="#F1F1F4"/>
<path d="M187.672 224.59C183.062 216.652 174.907 213.385 174.907 213.385L172.063 214.716L178.464 226.332C177.605 230.797 174.544 233.253 174.544 233.253L174.532 233.229C174.532 233.229 170.684 234.004 166.703 231.789L161.899 219.423L159.056 220.754C159.056 220.754 156.333 229.103 159.455 237.743C159.455 237.743 160.665 240.538 160.883 240.792C162.008 242.111 164.948 243.623 170.635 243.272L190.238 280.674C188.604 283.481 188.326 287.002 189.802 290.148C192.198 295.279 198.296 297.493 203.427 295.097C208.557 292.701 210.771 286.603 208.376 281.472C206.899 278.314 204.02 276.269 200.825 275.725L184.72 236.702C188.556 232.661 189.366 229.478 189.076 227.639C189.028 227.24 187.672 224.59 187.672 224.59ZM203.79 289.095L198.599 291.528L193.904 288.248L194.4 282.537L199.591 280.105L204.286 283.384L203.79 289.095Z" fill="url(#paint0_linear_102_2478)"/>
<path d="M189.088 227.639C184.478 219.701 176.323 216.434 176.323 216.434L173.479 217.765L179.88 229.381C179.021 233.846 175.96 236.303 175.96 236.303L175.947 236.278C175.947 236.278 172.1 237.053 168.119 234.839L163.315 222.472L160.471 223.803C160.471 223.803 157.749 232.152 160.871 240.792C160.871 240.792 165.299 246.733 172.039 246.322L191.641 283.723C190.008 286.53 189.729 290.051 191.206 293.197C193.601 298.328 199.7 300.542 204.83 298.146C209.961 295.75 212.175 289.652 209.779 284.522C208.303 281.363 205.423 279.319 202.229 278.774L186.124 239.751C190.806 234.851 189.088 227.639 189.088 227.639ZM205.218 292.145L200.027 294.577L195.332 291.298L195.828 285.586L201.019 283.154L205.714 286.433L205.218 292.145Z" fill="url(#paint1_linear_102_2478)"/>
<path d="M161.902 219.428L159.062 220.754L160.486 223.802L163.326 222.475L161.902 219.428Z" fill="#E5E2FF"/>
<path d="M174.895 213.38L172.055 214.707L173.479 217.755L176.318 216.428L174.895 213.38Z" fill="#E5E2FF"/>
<path d="M203.804 289.09L198.608 291.518L200.032 294.565L205.228 292.138L203.804 289.09Z" fill="#E5E2FF"/>
<path d="M176.25 249.092L192.089 279.524C196.251 279.718 198.478 276.535 198.478 276.535L185.591 244.724C179.807 244.519 176.25 249.092 176.25 249.092ZM197.256 276.79C196.796 277.189 196.094 277.721 195.211 278.133C194.509 278.459 193.771 278.677 193.021 278.786L177.158 248.984C177.932 248.294 179.263 247.277 180.969 246.479C182.252 245.886 183.558 245.499 184.889 245.317L197.256 276.79Z" fill="url(#paint2_linear_102_2478)"/>
<path d="M197.256 276.79L198.478 276.535C198.478 276.535 196.663 279.754 192.089 279.524L193.021 278.786C193.021 278.786 195.284 278.52 197.256 276.79Z" fill="#E5E2FF"/>
<path opacity="0.62" d="M176.25 249.092L177.158 248.971C177.158 248.971 179.868 246.164 184.889 245.317L185.579 244.736C185.579 244.736 183.558 244.386 180.412 245.85C177.279 247.314 176.25 249.092 176.25 249.092Z" fill="url(#paint3_linear_102_2478)"/>
<path opacity="0.62" d="M172.051 246.309C172.051 246.309 179.662 244.954 186.16 239.739L188.217 244.724C188.217 244.724 185.882 242.413 180.751 244.507C174.762 246.951 175.088 251.767 175.088 251.767L172.051 246.309Z" fill="url(#paint4_linear_102_2478)"/>
<path opacity="0.5" d="M188.217 244.736C186.753 243.684 185.083 243.66 185.083 243.66L200.414 280.686L202.265 278.774L188.217 244.736Z" fill="url(#paint5_linear_102_2478)"/>
<path d="M188.217 244.736C188.217 244.736 186.608 249.685 191.23 252.033L188.217 244.736Z" fill="white"/>
<path d="M418.941 484.004H362.071C356.118 450.946 342.275 407.93 342.275 407.93C338.911 405.934 332.341 408.39 332.341 408.39L311.553 484.004H259.595C256.836 437.346 282.368 384.384 282.368 384.384L282.356 384.371C282.271 384.19 281.46 382.569 281.678 381.48C281.763 381.008 282.634 380.112 283.614 379.229C285.018 377.946 286.687 376.664 286.687 376.664L383.621 376.059C383.621 376.059 384.601 376.555 385.848 377.305H385.86C387.977 378.588 390.845 380.572 390.845 382.024C390.845 384.021 390.058 385.315 389.865 385.606L389.816 385.666C410.604 424.895 418.941 484.004 418.941 484.004Z" fill="url(#paint6_linear_102_2478)"/>
<path opacity="0.5" d="M307.742 450.063C300.784 480.216 285.683 502.48 274.007 499.794C262.33 497.108 258.518 470.476 265.476 440.322C272.434 410.169 287.534 387.905 299.211 390.591C310.876 393.277 314.699 419.897 307.742 450.063Z" fill="url(#paint7_radial_102_2478)"/>
<path opacity="0.5" d="M408.16 438.786C416.509 468.588 413.932 495.366 402.401 498.596C390.869 501.827 374.752 480.289 366.391 450.486C358.042 420.684 360.619 393.906 372.15 390.676C383.694 387.445 399.811 408.983 408.16 438.786Z" fill="url(#paint8_radial_102_2478)"/>
<path d="M304.825 484.052L304.232 483.955C310.851 444.993 327.634 412.323 327.803 411.996L327.876 411.911L332.147 408.172L332.547 408.632L328.312 412.335C327.549 413.787 311.299 445.9 304.825 484.052Z" fill="url(#paint9_linear_102_2478)"/>
<path d="M369.791 484.052C363.305 445.876 346.607 413.448 345.857 412.008L342.07 408.608L342.469 408.16L346.365 411.681C346.534 412.008 363.765 444.993 370.384 483.955L369.791 484.052Z" fill="url(#paint10_linear_102_2478)"/>
<path opacity="0.76" d="M390.845 382.024C390.845 384.021 390.059 385.315 389.865 385.606L389.817 385.666C369.634 390.228 354.279 409.068 354.279 409.068C365.278 430.17 383.621 484.004 383.621 484.004H362.071C356.118 450.946 342.275 407.93 342.275 407.93C338.911 405.934 332.341 408.39 332.341 408.39L311.553 484.004H298.098C302.914 452.326 317.131 413.654 317.131 413.654C303.156 397.379 282.368 384.384 282.368 384.384L282.356 384.371L279.887 382.823L281.678 381.48C290.668 390.107 319.66 401.372 320.556 401.723L283.614 379.229C285.018 377.946 286.687 376.664 286.687 376.664L383.621 376.059C383.621 376.059 384.601 376.555 385.848 377.305L359.373 391.874L390.845 382.024Z" fill="url(#paint11_linear_102_2478)"/>
<path opacity="0.76" d="M342.275 407.93L353.589 400.586L350.902 407.93L348.93 430.025L342.275 407.93Z" fill="url(#paint12_linear_102_2478)"/>
<path opacity="0.76" d="M332.341 408.39L320.556 401.723L295.327 390.361L327.453 411.597L329.364 419.208L332.341 408.39Z" fill="url(#paint13_linear_102_2478)"/>
<path d="M364.769 181.078C364.842 181.598 364.903 181.876 364.903 181.876C364.31 184.345 363.632 186.632 362.894 188.725C360.522 195.537 357.57 200.377 355.356 203.39C353.432 205.992 352.064 207.238 352.064 207.238C334.41 201.696 325.71 184.43 322.371 175.839C322.346 175.802 322.334 175.754 322.322 175.705C321.681 174.084 321.257 172.777 320.991 171.93C320.991 171.93 320.991 171.93 320.991 171.918C320.786 171.24 320.689 170.865 320.689 170.865C320.761 170.72 320.834 170.563 320.907 170.418L320.943 170.357C321.233 169.752 321.524 169.135 321.79 168.542C324.101 163.484 325.638 158.753 326.63 155.026C327.489 151.856 327.949 149.412 328.167 148.117C328.275 147.452 328.324 147.089 328.324 147.089L336.552 151.433L364.903 166.437C364.479 169.038 364.31 171.482 364.297 173.624C364.273 175.137 364.322 176.492 364.406 177.641C364.491 179.045 364.636 180.158 364.745 180.884V180.896C364.745 180.969 364.757 181.017 364.769 181.078Z" fill="#FE9083"/>
<path d="M356.904 209.138C355.271 210.759 353.347 212.211 351.048 213.421C350.999 213.458 350.951 213.482 350.903 213.506C350.903 213.506 350.842 213.47 350.733 213.409L350.721 213.397C350.104 213.022 347.999 211.727 345.167 209.598C337.762 204.02 325.396 192.742 321.862 177.545C321.85 177.52 321.85 177.508 321.838 177.484C321.427 175.681 321.136 173.842 320.991 171.93C320.991 171.93 320.991 171.93 320.991 171.918C320.955 171.422 320.919 170.926 320.906 170.418C320.906 170.418 323.363 176.189 327.622 182.421C332.631 189.754 340.146 197.752 349.124 197.8C356.892 197.849 360.873 192.537 362.894 187.636C363.753 185.555 364.261 183.558 364.527 182.07C364.539 182.058 364.539 182.046 364.539 182.046C364.624 181.61 364.685 181.223 364.745 180.896V180.884C364.769 180.715 364.793 180.57 364.806 180.437C364.878 179.892 364.902 179.577 364.902 179.577C364.902 179.577 367.879 198.163 356.904 209.138Z" fill="url(#paint14_linear_102_2478)"/>
<path opacity="0.5" d="M356.904 209.138C355.271 210.759 353.347 212.211 351.048 213.421H350.903L350.733 213.409L350.721 213.397C350.104 213.022 347.999 211.727 345.167 209.598C337.762 204.02 325.396 192.742 321.862 177.545C321.85 177.52 321.85 177.508 321.838 177.484C321.427 175.681 321.136 173.842 320.991 171.93C320.991 171.93 320.991 171.93 320.991 171.918C320.955 171.422 320.919 170.926 320.906 170.418C320.906 170.418 323.363 176.189 327.622 182.421C327.622 182.421 332.51 195.852 343.086 202.507C348.386 205.835 352.403 205.351 355.355 203.39C358.308 201.442 360.22 198.042 361.345 195.477C362.47 192.9 362.833 190.492 362.894 188.725C362.906 188.326 362.906 187.963 362.894 187.636C363.753 185.555 364.261 183.558 364.527 182.07C364.539 182.058 364.539 182.046 364.539 182.046C364.624 181.61 364.685 181.223 364.745 180.896V180.884C364.769 180.715 364.793 180.57 364.806 180.437C364.878 179.892 364.902 179.577 364.902 179.577C364.902 179.577 367.879 198.163 356.904 209.138Z" fill="url(#paint15_linear_102_2478)"/>
<path d="M424.858 318.874C424.725 318.934 424.665 318.97 424.665 318.97C423.673 319.091 420.587 318.414 416.546 314.917L416.534 314.905C416.534 314.893 416.521 314.881 416.497 314.869C416.485 314.856 416.473 314.832 416.449 314.82C413.061 311.856 408.995 306.907 404.942 298.8C396.835 282.598 394.511 271.78 394.136 269.893L394.088 269.602L389.357 277.104C386.15 286.748 380.076 326.654 380.185 328.372C380.294 330.09 385.569 338.464 385.461 339.492C385.461 339.492 385.461 339.504 385.448 339.516C385.303 340.557 382.932 342.844 382.254 345.337C381.794 346.994 385.013 352.222 387.276 356.13V356.142C388.449 358.175 389.357 359.845 389.357 360.474C389.357 362.301 383.621 371.243 383.621 371.243V376.059L383.537 376.143L383.27 376.385L383.053 376.567C380.875 378.285 371.642 383.912 342.796 385.46C308.613 387.288 285.84 376.289 285.84 376.289L287.559 371.582C287.559 371.582 285.961 370.214 285.84 369.525C285.732 368.835 287.099 367.226 287.099 367.226C287.099 367.226 283.662 365.398 283.662 363.099C283.662 360.813 290.547 353.71 290.318 347.623C290.088 341.549 284.812 336.165 284.122 332.728C283.433 329.292 293.064 320.81 293.064 320.81C284.812 294.673 283.203 259.595 283.203 259.595L281.605 257.756C281.605 257.756 271.744 280.226 262.802 291.225C261.737 292.532 260.612 293.826 259.45 295.073C256.958 297.771 254.308 300.3 251.755 302.514C245.559 307.911 239.933 311.456 238.505 311.178C236.206 310.718 227.034 292.604 227.458 274.031C227.651 265.198 232.975 255.312 238.505 247.386C239.098 246.539 239.691 245.704 240.296 244.894C244.216 239.558 247.979 235.371 249.782 233.459C250.484 232.709 250.883 232.31 250.883 232.31C250.883 232.31 249.625 228.256 248.766 224.735C248.754 224.65 248.73 224.566 248.705 224.481C248.705 224.445 248.693 224.396 248.681 224.36C248.669 224.299 248.657 224.275 248.657 224.275C248.149 222.109 247.834 220.234 248.125 219.774C248.887 218.552 253.328 217.172 254.09 216.265C254.852 215.345 258.059 199.906 260.503 198.224C262.85 196.614 266.976 195.441 280.734 190.032C281.412 189.766 282.102 189.499 282.828 189.209C298.255 183.099 313.392 175.681 313.392 175.681L319.2 168.542H321.79L320.943 170.357L320.907 170.418C321.318 172.257 321.79 174.023 322.322 175.705C322.334 175.754 322.346 175.802 322.371 175.838C330.357 201.031 350.903 209.15 350.903 209.15C365.181 198.611 364.902 181.876 364.902 181.876V179.577L367.577 180.376L369.404 184.732C369.404 184.732 372.501 189.548 384.771 194.945C386.888 195.876 389.163 197.05 391.511 198.393C402.739 204.77 415.227 214.631 416.183 216.725C416.279 216.942 416.388 217.281 416.509 217.765V217.777C417.828 222.956 420.539 242.353 423.056 249.274C424.629 253.594 427.109 255.977 428.936 257.212C428.948 257.224 428.948 257.224 428.96 257.224C430.316 258.155 431.308 258.446 431.308 258.446C431.501 259.511 431.683 260.563 431.852 261.604C437.116 294.782 427.109 317.301 424.858 318.874Z" fill="url(#paint16_linear_102_2478)"/>
<path opacity="0.5" d="M293.173 256.244L283.203 259.595L281.605 257.756C281.605 257.756 271.744 280.226 262.802 291.225C261.737 292.532 260.612 293.827 259.45 295.073C256.957 297.771 254.308 300.3 251.754 302.514L244.156 269.759L240.296 244.894C244.216 239.558 247.979 235.371 249.782 233.459C250.484 232.709 250.883 232.31 250.883 232.31C250.883 232.31 249.625 228.256 248.766 224.735C248.754 224.65 248.729 224.566 248.705 224.481C248.705 224.445 248.693 224.396 248.681 224.36C248.669 224.299 248.657 224.275 248.657 224.275C248.149 222.109 247.834 220.234 248.124 219.774C248.887 218.552 253.327 217.172 254.09 216.265C254.852 215.345 258.059 199.906 260.503 198.224C260.503 198.224 258.906 213.046 267.388 231.85L271.514 237.658L283.59 247.362C283.59 247.362 288.176 253.449 293.173 256.244Z" fill="url(#paint17_linear_102_2478)"/>
<path d="M264.326 283.057C262.185 298.945 238.505 311.178 238.505 311.178C233.229 311.178 227.337 302.006 221.988 290.693C216.64 279.379 216.313 246.878 216.035 244.869C215.745 242.861 212.768 238.844 212.586 237.125C212.417 235.407 217.402 231.85 217.402 231.85L217.366 231.765L217.33 231.68C216.809 230.567 213.881 224.287 214.087 223.138C214.317 221.879 219.919 219.133 219.919 219.133L220.27 225.316C220.27 225.316 233.314 222.847 237.73 212.744L238.505 209.646L240.683 211.098V224.396C240.683 224.396 241.131 226.465 241.82 226.465C242.51 226.465 247.592 223.924 248.657 224.275C249.734 224.626 250.786 231.741 252.214 232.648C253.63 233.568 257.417 236.206 257.986 237.464C258.24 238.033 258.264 240.078 258.289 242.486C258.325 245.438 258.349 248.923 258.785 250.883C259.595 254.429 266.468 267.158 264.326 283.057Z" fill="url(#paint18_linear_102_2478)"/>
<path d="M480.906 269.445C479.841 271.127 474.493 274.648 473.114 276.027C471.734 277.395 473.114 281.92 473.114 281.92C450.644 305.769 427.218 317.712 424.858 318.874C424.725 318.934 424.665 318.97 424.665 318.97C410.556 309.484 411.766 293.863 416.449 280.698C420.926 268.065 428.597 257.696 428.936 257.248L428.948 257.236C428.948 257.236 428.948 257.236 428.96 257.224C429.214 257.127 433.244 255.457 436.124 255.239C437.08 255.167 437.951 255.542 438.774 256.062C440.492 257.127 441.944 258.809 443.347 258.107C445.416 257.066 450.039 246.14 453.173 245.838C455.363 245.632 458.4 247.858 460.421 249.129C461.304 249.685 461.994 250.06 462.332 249.964C463.482 249.661 467.378 244.991 467.693 244.87C467.995 244.736 469.774 246.043 469.774 246.043L468.528 247.592C470.439 258.603 476.707 266.008 476.707 266.008L480.906 259.862C480.906 259.862 481.983 267.763 480.906 269.445Z" fill="url(#paint19_linear_102_2478)"/>
<path d="M364.83 180.606C364.806 180.763 364.781 180.921 364.769 181.078C364.709 181.405 364.636 181.719 364.539 182.046C364.539 182.046 364.539 182.058 364.527 182.07C363.087 187.406 357.267 192.863 349.923 190.238C341.9 187.37 326.63 155.026 326.63 155.026L328.167 148.117L364.406 177.641L364.806 180.437L364.83 180.606Z" fill="#CB4D7A"/>
<path d="M244.156 174.689C244.156 174.689 241.941 162.456 242.933 153.441C243.926 144.427 242.679 134.178 242.679 134.178C242.679 134.178 240.489 133.258 238.88 134.178C237.271 135.097 233.532 144.415 235.214 151.905C236.896 159.394 235.601 177.351 235.601 177.351H233.084L227.578 169.788L224.904 169.026C224.904 169.026 209.501 183.546 209.731 192.186L211.739 199.869L230.7 199.216L243.079 185.083L244.156 174.689Z" fill="#EE8183"/>
<path d="M224.892 169.026C224.892 169.026 225.292 178.658 227.445 186.91C227.445 186.91 227.082 190.286 223.126 190.516L222.146 189.427C222.146 189.427 221.456 193.263 217.959 193.553L214.631 190.226L215.49 192.972C215.49 192.972 214.293 195.9 211.134 195.779C211.134 195.779 205.859 191.653 205.52 186.269L210.735 181.852V178.476L216.93 174.12L217.039 171.652C217.063 171.664 220.694 168.978 224.892 169.026Z" fill="url(#paint20_linear_102_2478)"/>
<path opacity="0.6" d="M243.151 150.852C243.151 150.852 242.219 153.211 240.901 154.131C239.582 155.051 235.758 155.752 235.758 155.752L235.589 177.363H233.072L227.566 169.801C227.566 169.801 230.361 174.12 230.531 177.363L228.353 178.428L226.465 171.954L225.57 176.613L226.465 182.409C226.465 182.409 229.732 179.602 235.637 179.493L236.52 181.102C236.52 181.102 225.836 189.947 223.38 195.162C223.38 195.162 228.655 188.459 240.695 181.066L241.844 177.508L243.369 169.026C243.345 169.026 241.905 156.805 243.151 150.852Z" fill="url(#paint21_linear_102_2478)"/>
<path d="M252.105 188.519C251.113 191.496 240.719 203.874 239.57 206.561C238.42 209.235 237.73 212.744 237.73 212.744C232.624 223.791 220.27 225.316 220.27 225.316L219.701 215.345C219.701 215.345 213.058 211.522 211.933 209.428L211.921 209.392L211.788 209.041C211.449 207.093 211.739 199.869 211.739 199.869L223.368 195.162C228.413 188.628 240.683 181.066 240.683 181.066L241.251 177.641C232.443 173.31 233.919 160.205 235.407 158.596C236.895 156.999 239.642 156.999 239.642 156.999C239.642 156.999 242.861 167.538 244.918 172.475C246.987 177.399 253.097 185.543 252.105 188.519Z" fill="url(#paint22_linear_102_2478)"/>
<path d="M217.063 171.664C217.063 171.664 218.358 183.704 222.17 189.427C222.17 189.427 217.342 183.425 216.955 174.12L217.063 171.664Z" fill="#E28183"/>
<path d="M210.759 178.488C210.759 178.488 212.018 188.181 217.983 193.565C217.983 193.565 212.707 190.927 210.759 181.876V178.488Z" fill="#E28183"/>
<path opacity="0.91" d="M241.179 203.995C241.179 203.995 228.075 216.725 219.701 215.345L220.27 225.316C220.27 225.316 234.028 224.118 238.505 209.646C238.505 209.646 240.114 205.484 241.179 203.995Z" fill="url(#paint23_linear_102_2478)"/>
<path d="M518.319 221.299C518.319 221.299 506.28 243.309 492.183 250.073H487.367L476.247 266.928C476.247 266.928 469.06 262.415 468.528 247.592C468.528 247.592 471.044 244.966 471.661 242.002C471.661 242.002 467.693 238.88 466.616 236.593C465.551 234.294 465.164 227.421 464.401 224.59C463.639 221.758 457.141 215.878 455.689 215.115C454.237 214.353 447.667 213.966 447.667 213.966C447.667 213.966 446.747 211.594 447.667 210.457C448.587 209.307 458.823 205.326 464.401 209.15C464.401 209.15 464.789 212.054 465.394 213.591C466.011 215.115 470.899 220.536 471.661 220.536C472.424 220.536 475.715 217.79 477.167 215.648C478.559 213.591 485.952 197.655 487.743 192.27C487.755 192.21 487.767 192.162 487.791 192.113C487.815 192.028 487.851 191.944 487.864 191.871C487.888 191.811 487.9 191.762 487.912 191.714C487.924 191.69 487.936 191.678 487.936 191.653C489.316 186.995 497.338 178.053 501.621 175.609C501.621 175.609 503.448 175.149 504.441 177.436C504.441 177.436 501.004 187.225 497.41 193.033C496.805 194.013 496.152 195.162 495.475 196.397C495.475 196.397 495.474 196.397 495.462 196.397C492.401 202.023 488.953 209.392 488.456 210.469L488.396 210.602L490.308 211.582L495.475 206.682L500.774 201.66L512.935 214.498L511.737 216.023L507.938 220.899L509.862 221.25L514.339 216.301L518.319 221.299Z" fill="url(#paint24_linear_102_2478)"/>
<path opacity="0.6" d="M515.5 225.981L511.652 231.632C511.652 231.632 490.538 215.345 485.952 213.966C481.366 212.587 479.684 213.506 479.684 213.506L474.953 219.544C474.953 219.544 483.665 227.264 484.427 237.658C484.427 237.658 481.523 224.517 471.662 220.536C472.424 220.536 475.715 217.79 477.167 215.648C478.559 213.591 485.952 197.655 487.743 192.27C487.501 193.19 487.186 194.981 487.936 196.397C488.977 198.32 495.1 196.505 495.463 196.397C495.475 196.397 495.475 196.397 495.475 196.397L488.457 210.469L488.396 210.602L490.308 211.582L495.475 206.682L492.885 212.695L511.737 216.023L507.938 220.899L509.862 221.25L515.5 225.981Z" fill="url(#paint25_linear_102_2478)"/>
<path d="M500.774 201.66C500.774 201.66 504.441 201.128 506.812 205.859L506.28 207.383C506.28 207.383 509.849 208.085 513.31 213.881C513.31 213.881 510.249 219.459 502.686 221.976C502.686 221.976 499.165 220.984 498.56 218.007L499.25 216.096L496.503 218.165C496.503 218.165 493.212 219.157 491.76 214.268L500.774 201.66Z" fill="url(#paint26_linear_102_2478)"/>
<path d="M519.421 219.774C519.421 219.774 520.183 216.253 516.444 213.966L509.184 221.988C509.184 221.988 509.402 224.566 512.548 225.122C512.548 225.122 517.509 223.44 519.421 219.774Z" fill="url(#paint27_linear_102_2478)"/>
<path opacity="0.91" d="M466.616 236.593C466.616 236.593 475.025 245.983 487.367 250.073L482.043 258.131L470.948 244.035L471.661 242.002C471.661 242.002 467.221 238.662 466.616 236.593Z" fill="url(#paint28_linear_102_2478)"/>
<path d="M506.28 207.396C506.28 207.396 502.759 213.204 499.25 216.108L498.56 218.019C498.56 218.019 505.384 213.409 507.889 208.097C507.901 208.097 507.079 207.504 506.28 207.396Z" fill="#E28183"/>
<path opacity="0.5" d="M480.906 269.445C479.841 271.127 474.493 274.648 473.114 276.027C471.734 277.395 473.114 281.92 473.114 281.92C450.644 305.769 427.218 317.712 424.858 318.874C424.725 318.934 424.665 318.971 424.665 318.971C422.826 319.2 413.884 316.684 404.942 298.8C396.835 282.598 394.511 271.78 394.136 269.893L394.088 269.602L396.06 266.928L398.988 233.919L401.045 240.562C408.838 231.16 416.183 216.725 416.183 216.725L416.509 217.765V217.777C417.828 222.956 420.539 242.353 423.056 249.274C424.629 253.594 427.109 255.977 428.936 257.212L428.948 257.236L428.936 257.248C421.761 263.794 418.203 273.208 416.449 280.698C414.84 287.571 414.731 292.834 414.731 292.834C414.731 292.834 416.715 283.517 422.983 272.313C425.258 268.235 428.573 264.593 431.852 261.604C434.321 259.353 436.777 257.466 438.774 256.062C440.492 257.127 441.944 258.809 443.347 258.107C433.909 272.276 434.139 300.324 443.009 294.976C451.866 289.628 453.899 278.278 453.899 278.278C451.805 264.447 452.435 248.85 454.116 245.886C456.161 245.959 462.006 250.06 462.345 249.964C461.812 266.238 469.459 277.104 469.459 277.104L474.505 269.3C467.16 256.921 467.705 244.87 467.705 244.87C468.007 244.736 469.786 246.043 469.786 246.043L468.54 247.592C470.452 258.603 476.719 266.008 476.719 266.008L480.918 259.862C480.906 259.862 481.983 267.763 480.906 269.445Z" fill="url(#paint29_linear_102_2478)"/>
<path opacity="0.5" d="M383.621 371.243V376.059L383.537 376.143L383.27 376.385L383.053 376.567C380.874 378.285 371.642 383.912 342.795 385.46C308.613 387.288 285.84 376.289 285.84 376.289L287.559 371.582C287.559 371.582 285.961 370.214 285.84 369.525C285.731 368.835 287.099 367.226 287.099 367.226C287.099 367.226 283.662 365.398 283.662 363.099C283.662 361.03 289.277 355.041 290.184 349.414C290.293 348.809 290.342 348.216 290.317 347.623C290.087 341.573 284.86 336.213 284.134 332.777C284.122 332.74 284.122 332.728 284.122 332.728C283.432 329.292 293.064 320.81 293.064 320.81C284.812 294.673 283.203 259.595 283.203 259.595L281.605 257.756C281.605 257.756 271.744 280.226 262.802 291.225C253.86 302.236 240.792 311.638 238.505 311.178C233.229 311.178 227.336 302.006 221.988 290.693C216.64 279.379 216.313 246.878 216.035 244.869C215.745 242.861 212.768 238.844 212.586 237.125C218.322 246.987 227.457 244.083 227.457 244.083C220.839 244.228 217.402 231.85 217.402 231.85L217.366 231.765L217.33 231.68L214.099 223.15C214.462 223.561 222.024 232.019 229.333 226.804C236.823 221.456 240.683 211.098 240.683 211.098V224.396C240.683 224.396 241.131 226.465 241.82 226.465C241.373 232.588 240.078 240.042 238.505 247.386C235.105 263.274 230.446 278.617 230.446 278.617C230.446 278.617 243.079 271.744 247.519 254.32C249.637 245.983 249.988 238.735 249.782 233.459C249.601 228.946 249.008 225.86 248.766 224.735C248.754 224.65 248.729 224.566 248.705 224.481C248.705 224.445 248.693 224.396 248.681 224.36C248.681 224.336 248.669 224.311 248.669 224.299L249.891 226.889L252.214 232.648C254.913 255.009 249.347 288.708 249.347 288.708C257.454 278.617 259.135 256.304 258.785 250.883C258.627 248.294 258.422 245.099 258.288 242.486C258.107 239.63 257.986 237.464 257.986 237.464L274.575 247.362L271.514 237.658L283.59 247.362C283.59 247.362 294.444 260.43 305.6 261.955C316.756 263.492 357.715 262.572 357.715 262.572C357.715 262.572 322.104 264.859 311.71 267.92C301.316 270.981 299.332 274.491 299.332 274.491C306.846 312.715 348.434 325.601 349.729 325.989C312.001 320.326 294.444 288.248 294.444 288.248C294.444 288.248 293.826 306.29 296.73 313.162C299.634 320.035 316.756 336.854 338.766 340.363C340.617 340.654 342.445 340.835 344.248 340.92C362.809 341.791 378.176 332.305 379.749 331.288C379.834 331.228 379.882 331.204 379.882 331.204C379.882 331.204 379.87 331.228 379.846 331.264C379.253 332.172 371.642 342.868 340.908 344.042C339.044 344.114 337.229 344.102 335.463 344.03C335.451 344.03 335.439 344.03 335.439 344.03C306.955 342.832 292.447 323.859 292.447 323.859C292.447 323.859 281.908 329.522 288.635 337.919C288.708 338.004 288.781 338.101 288.853 338.185C290.838 340.472 295.206 343.267 300.373 346.147C300.518 346.232 300.663 346.317 300.796 346.389C307.04 349.838 314.36 353.395 320.023 356.336C320.059 356.348 320.084 356.36 320.108 356.372C323.568 358.175 326.412 359.724 327.997 360.885C328.009 360.885 328.009 360.897 328.009 360.897C329.606 362.059 329.933 362.809 328.372 362.991C320.422 363.91 290.317 357.34 289.095 359.167C287.873 361.006 290.584 365.737 290.584 365.737C318.22 379.435 377.353 372.683 379.217 372.477C329.727 385.146 289.24 369.101 289.24 369.101L290.584 373.844C290.584 373.844 312.63 381.48 338.609 382.097C364.6 382.702 380.802 376.059 380.802 376.059L383.621 371.243Z" fill="url(#paint30_linear_102_2478)"/>
<path opacity="0.5" d="M363.378 262.415C363.378 262.415 383.065 263.479 396.072 266.928L389.369 277.104C389.357 277.104 379.265 268.223 363.378 262.415Z" fill="url(#paint31_linear_102_2478)"/>
<path opacity="0.5" d="M381.77 316.671C381.77 316.671 369.488 326.92 357.412 331.651C345.337 336.395 333.72 336.842 333.72 336.842C333.72 336.842 340.666 338.911 357.739 336.153C374.824 333.406 380.669 324.149 380.669 324.149L381.77 316.671Z" fill="url(#paint32_linear_102_2478)"/>
<path opacity="0.5" d="M387.275 356.13C364.551 362.011 335.705 353.589 335.947 352.56C336.189 351.532 343.848 353.02 361.611 349.463C378.83 346.014 385.073 339.892 385.448 339.516C385.303 340.557 382.931 342.844 382.254 345.337C381.794 346.994 385.013 352.222 387.275 356.13Z" fill="url(#paint33_linear_102_2478)"/>
<path opacity="0.5" d="M325.553 265.5C306.144 267.473 300.917 272.881 300.917 272.881C295.46 273.571 283.203 259.595 283.203 259.595L281.605 257.756C281.605 257.756 271.744 280.226 262.802 291.225C261.737 292.532 260.612 293.827 259.45 295.073L260.721 292.217C260.721 292.217 262.802 291.225 263.407 280.299C264.024 269.384 258.821 253.098 258.785 250.883C258.748 248.669 257.986 237.464 257.986 237.464L274.575 247.362L271.514 237.658L283.59 247.362C283.59 247.362 288.321 254.477 300.264 260.406C311.529 266.008 324.161 265.561 325.553 265.5Z" fill="url(#paint34_linear_102_2478)"/>
<path opacity="0.5" d="M281.605 257.756L293.173 256.244C293.173 256.244 297.795 259.305 307.076 263.08L299.344 274.491C299.344 274.491 302.418 290.753 311.226 299.913C311.226 299.913 287.849 286.929 284.558 276.015L281.605 257.756Z" fill="url(#paint35_linear_102_2478)"/>
<path opacity="0.5" d="M214.099 223.15L217.402 231.85C217.402 231.85 220.766 243.587 227.457 244.083C234.149 244.579 240.683 224.396 240.683 224.396V211.098C240.683 211.098 233.568 226.344 225.884 228.062C218.213 229.793 214.099 223.15 214.099 223.15Z" fill="url(#paint36_linear_102_2478)"/>
<path opacity="0.5" d="M254.09 216.265C254.09 216.265 260.055 228.184 267.388 231.85C267.388 231.85 258.664 210.675 260.503 198.224C260.503 198.224 257.296 200.22 254.09 216.265Z" fill="url(#paint37_linear_102_2478)"/>
<path opacity="0.76" d="M398.988 233.919L401.045 240.562L403.127 295.073C403.127 295.073 397.839 284.703 394.136 269.893L396.06 266.928C396.06 266.928 399.303 246.382 398.988 233.919Z" fill="url(#paint38_linear_102_2478)"/>
<path opacity="0.5" d="M462.332 249.964C462.332 249.964 461.171 276.741 472.545 279.052L473.113 281.92C473.113 281.92 458.388 281.375 462.332 249.964Z" fill="url(#paint39_linear_102_2478)"/>
<path opacity="0.3" d="M443.347 258.107C443.347 258.107 442.912 259.063 438.773 256.062C438.773 256.062 424.459 266.202 418.941 280.492C418.941 280.492 427.762 267.364 432.457 265.948C437.152 264.532 438.289 269.772 438.289 269.772C438.289 269.772 440.153 262.378 443.347 258.107Z" fill="url(#paint40_linear_102_2478)"/>
<path opacity="0.5" d="M212.586 237.125C212.586 237.125 218.092 247.277 228.413 244.095C228.413 244.095 222.23 248.258 216.035 244.87C216.035 244.87 212.187 238.275 212.586 237.125Z" fill="url(#paint41_linear_102_2478)"/>
<path opacity="0.5" d="M248.657 224.275C248.657 224.275 256.231 252.589 236.472 273.861C236.472 273.861 249.298 267.279 252.214 252.033C255.118 236.775 248.657 224.275 248.657 224.275Z" fill="url(#paint42_linear_102_2478)"/>
<path opacity="0.5" d="M384.347 201.648C384.347 201.648 383.5 214.426 377.366 223.598C371.243 232.769 359.094 238.953 359.094 238.953C359.094 238.953 374.341 233.338 381.334 225.425C388.328 217.523 384.347 201.648 384.347 201.648Z" fill="url(#paint43_linear_102_2478)"/>
<path opacity="0.5" d="M306.362 182.421C306.362 182.421 306.362 193.105 309.799 203.995C313.235 214.885 343.086 233.919 343.086 233.919C343.086 233.919 312.315 221.141 306.362 209.646C300.397 198.151 306.362 182.421 306.362 182.421Z" fill="url(#paint44_linear_102_2478)"/>
<path d="M306.011 233.314V250.714C306.011 250.714 346.075 250.387 391.002 253.364L392.031 237.694C392.031 237.706 352.972 233.072 306.011 233.314Z" fill="url(#paint45_linear_102_2478)"/>
<path d="M313.441 237.283C313.453 236.98 313.598 236.847 313.864 236.847L321.983 237.089C322.782 237.113 323.472 237.234 324.028 237.452C324.585 237.67 325.033 237.972 325.372 238.36C325.71 238.747 325.94 239.195 326.085 239.739C326.231 240.271 326.291 240.864 326.267 241.518L326.194 243.744C326.17 244.398 326.073 244.991 325.904 245.511C325.735 246.031 325.468 246.479 325.105 246.842C324.742 247.205 324.283 247.471 323.714 247.665C323.145 247.846 322.455 247.931 321.657 247.907L317.289 247.774L316.381 245.22H316.26L316.188 247.749L313.126 247.653L313.441 237.283ZM316.272 244.942L321.463 245.099C322.044 245.112 322.467 245.003 322.722 244.749C322.976 244.494 323.109 244.047 323.133 243.393L323.194 241.578C323.218 240.901 323.109 240.441 322.867 240.187C322.625 239.933 322.213 239.8 321.633 239.787L316.672 239.63C316.599 239.63 316.551 239.654 316.502 239.691C316.466 239.739 316.442 239.787 316.442 239.848L316.272 244.942Z" fill="#EBEFFF"/>
<path d="M330.659 241.917H330.55L330.454 245.16C330.454 245.293 330.514 245.366 330.659 245.378L339.783 245.656L339.698 248.463L327.731 248.1C327.441 248.088 327.308 247.943 327.308 247.64L327.61 237.706C327.622 237.404 327.767 237.271 328.058 237.271L339.686 237.622C339.989 237.634 340.134 237.779 340.122 238.081L340.037 240.889L337.169 241.857H337.048L337.097 240.417C337.097 240.308 337.048 240.247 336.951 240.247L330.817 240.066C330.732 240.066 330.684 240.09 330.659 240.126C330.635 240.175 330.623 240.223 330.623 240.271L330.587 241.627L335.645 241.784L335.572 243.986L331.337 243.853L330.659 241.917Z" fill="#EBEFFF"/>
<path d="M350.951 241.723H350.83L350.866 240.538C350.866 240.417 350.818 240.356 350.697 240.356L344.986 240.187C344.78 240.187 344.635 240.223 344.55 240.308C344.465 240.392 344.429 240.526 344.417 240.695L344.405 240.961C344.393 241.167 344.429 241.3 344.502 241.36C344.574 241.421 344.707 241.469 344.901 241.506L351.592 242.643C352.016 242.716 352.379 242.825 352.669 242.946C352.96 243.079 353.202 243.248 353.383 243.454C353.565 243.66 353.686 243.914 353.758 244.216C353.831 244.519 353.855 244.87 353.843 245.281L353.819 246.14C353.807 246.588 353.734 246.975 353.613 247.314C353.492 247.653 353.311 247.931 353.056 248.161C352.802 248.391 352.464 248.548 352.064 248.657C351.653 248.766 351.157 248.814 350.564 248.79L340.932 248.5L341.017 245.692L349.656 245.959C349.91 245.971 350.092 245.922 350.177 245.838C350.261 245.741 350.31 245.583 350.322 245.341L350.334 245.039C350.334 244.845 350.31 244.712 350.249 244.64C350.189 244.567 350.068 244.507 349.874 244.482L343.413 243.466C342.977 243.393 342.602 243.297 342.299 243.163C341.997 243.03 341.743 242.873 341.549 242.667C341.356 242.462 341.223 242.22 341.138 241.929C341.053 241.639 341.029 241.3 341.041 240.901L341.065 240.138C341.089 239.352 341.319 238.759 341.743 238.335C342.178 237.912 342.868 237.718 343.848 237.755L353.468 238.045C353.77 238.057 353.928 238.214 353.916 238.529L353.843 240.755L350.951 241.723Z" fill="#EBEFFF"/>
<path d="M355.017 248.923L355.344 238.106L358.405 238.202L358.078 249.02L355.017 248.923Z" fill="#EBEFFF"/>
<path d="M369.44 244.724C369.44 244.567 369.44 244.398 369.428 244.228C369.416 244.059 369.404 243.902 369.392 243.768V243.635L372.429 243.732L372.272 249.044C372.259 249.322 372.138 249.455 371.884 249.443L363.741 249.201C362.942 249.177 362.253 249.056 361.696 248.838C361.139 248.621 360.692 248.318 360.353 247.931C360.014 247.544 359.772 247.096 359.639 246.551C359.494 246.019 359.433 245.426 359.458 244.773L359.53 242.546C359.554 241.893 359.651 241.3 359.821 240.78C359.99 240.259 360.256 239.812 360.619 239.449C360.982 239.086 361.442 238.819 362.011 238.626C362.579 238.444 363.269 238.36 364.068 238.384L372.163 238.626C372.453 238.638 372.586 238.783 372.586 239.086L372.514 241.421L369.646 242.377H369.525L369.561 241.336C369.561 241.239 369.525 241.191 369.428 241.179L364.261 241.022C363.959 241.01 363.717 241.034 363.511 241.082C363.305 241.131 363.136 241.215 363.003 241.348C362.87 241.482 362.773 241.651 362.7 241.881C362.64 242.099 362.591 242.377 362.579 242.704L362.519 244.603C362.495 245.257 362.604 245.717 362.846 245.983C363.088 246.249 363.499 246.394 364.08 246.406L369.21 246.564C369.319 246.564 369.38 246.515 369.38 246.394L369.44 244.724Z" fill="#EBEFFF"/>
<path d="M378.902 238.82C379.132 238.832 379.29 238.868 379.386 238.941C379.483 239.013 379.556 239.122 379.64 239.279L383.512 247.181C383.573 247.302 383.67 247.362 383.791 247.362H383.948C384.105 247.362 384.19 247.29 384.19 247.132L384.432 238.989L387.215 239.074L386.901 249.468C386.888 249.758 386.743 249.891 386.477 249.879L382.073 249.746C381.867 249.746 381.71 249.71 381.613 249.637C381.516 249.576 381.419 249.455 381.334 249.286L377.317 241.397C377.257 241.276 377.172 241.215 377.039 241.215H376.894C376.736 241.215 376.652 241.288 376.652 241.445L376.41 249.576L373.627 249.492L373.941 239.11C373.953 238.807 374.099 238.674 374.365 238.674L378.902 238.82Z" fill="#EBEFFF"/>
<path opacity="0.5" d="M369.404 184.732C368.46 195.985 365.036 203.826 361.381 209.114C356.348 216.374 350.903 218.854 350.903 218.854C345.458 216.483 340.739 213.53 336.673 210.275C319.418 196.481 313.852 177.363 313.429 175.79C320.713 193.384 331.409 204.044 339.517 210.045C346.051 214.898 350.903 216.725 350.903 216.725V211.098C349.608 210.614 348.35 210.058 347.152 209.453C332.874 202.253 325.372 187.249 321.862 177.545C321.85 177.52 321.85 177.508 321.838 177.484C319.939 172.233 319.2 168.542 319.2 168.542H321.79L320.943 170.357L320.907 170.418C321.318 172.257 321.79 174.023 322.322 175.705C322.334 175.754 322.346 175.802 322.371 175.838C330.357 201.031 350.903 209.15 350.903 209.15C365.181 198.611 364.903 181.876 364.903 181.876V179.577L367.577 180.376L369.404 184.732Z" fill="url(#paint46_linear_102_2478)"/>
<path opacity="0.3" d="M454.104 245.886C454.104 245.886 450.22 258.567 453.886 278.278C453.886 278.278 455.726 253.291 457.093 251.113C458.472 248.935 462.32 249.964 462.32 249.964C462.32 249.964 456.27 246.612 454.104 245.886Z" fill="url(#paint47_linear_102_2478)"/>
<path opacity="0.5" d="M416.449 314.82C413.061 311.856 408.995 306.907 404.942 298.8C396.835 282.598 394.511 271.78 394.136 269.893L396.06 266.928L398.637 242.002L401.045 240.562C401.045 240.562 409.649 231.063 416.183 216.725C416.279 216.943 416.388 217.281 416.509 217.765V217.777C417.828 222.956 420.539 242.353 423.055 249.274C424.628 253.594 427.109 255.977 428.936 257.212C428.936 257.212 414.041 279.306 413.315 295.073C412.674 309.424 415.868 314.094 416.449 314.82Z" fill="url(#paint48_linear_102_2478)"/>
<path opacity="0.5" d="M328.009 360.897C328.009 360.897 301.159 356.493 290.196 349.426C290.196 349.426 290.184 349.426 290.184 349.414C290.293 348.809 290.342 348.216 290.317 347.624C290.088 341.573 284.86 336.213 284.134 332.777C284.255 333.103 285.042 334.918 288.853 338.185C291.261 340.255 294.903 342.917 300.373 346.147C300.518 346.232 300.663 346.317 300.796 346.389C308.54 350.963 315.207 354.061 320.023 356.336C320.059 356.348 320.084 356.36 320.108 356.372C324.44 358.405 327.247 359.748 327.997 360.885C328.009 360.885 328.009 360.897 328.009 360.897Z" fill="url(#paint49_linear_102_2478)"/>
<path opacity="0.5" d="M385.448 339.516C385.303 340.557 382.932 342.844 382.254 345.337C382.254 345.337 372.405 355.767 335.947 352.56C336.189 351.532 343.848 353.02 361.611 349.463C378.83 346.014 385.073 339.892 385.448 339.516Z" fill="url(#paint50_linear_102_2478)"/>
<path opacity="0.5" d="M391.51 198.393L368.206 205.944L361.381 209.114L361.345 209.126L356.904 209.138L350.903 209.15L347.152 209.453L345.167 209.598L339.516 210.045L336.673 210.275L308.722 200.16L303.724 198.357L280.734 190.032C281.412 189.766 282.101 189.5 282.827 189.209C298.255 183.099 313.392 175.681 313.392 175.681L319.2 168.542H321.79C324.101 163.484 325.638 158.753 326.63 155.026L328.166 148.117C328.275 147.452 328.324 147.089 328.324 147.089L336.552 151.433L364.297 173.624C364.273 175.137 364.322 176.492 364.406 177.641L364.806 180.437C364.878 179.892 364.902 179.577 364.902 179.577L367.576 180.376L369.404 184.732C369.404 184.732 372.501 189.548 384.771 194.945C386.888 195.876 389.163 197.05 391.51 198.393Z" fill="#7A4AC0"/>
<path d="M373.76 177.133C373.76 177.133 362.894 179.577 350.902 173.769C338.911 167.961 328.832 150.84 328.215 146.568C327.61 142.285 332.801 131.129 332.801 122.417C332.801 113.705 328.529 98.7246 335.705 90.6175C342.892 82.5226 375.901 81.3005 386.61 91.6944C386.61 91.6944 389.925 100.019 389.925 104.726C389.925 105.864 389.72 107.533 389.417 109.457C389.32 110.171 389.187 110.934 389.066 111.72C388.11 117.419 386.791 124.377 387.408 127.426C387.626 128.491 387.965 129.471 388.364 130.403V130.415C389.683 133.464 391.644 135.896 391.994 138.534C392.454 141.982 387.832 166.437 373.76 177.133Z" fill="url(#paint51_linear_102_2478)"/>
<path d="M332.716 119.96C332.716 119.96 329.752 112.519 322.298 112.41C322.298 112.41 317.942 114.128 317.252 117.456C317.252 117.456 318.862 129.495 320.689 135.11C322.528 140.724 329.243 139.913 329.243 139.913C329.243 139.913 335.1 130.947 332.716 119.96Z" fill="url(#paint52_linear_102_2478)"/>
<path d="M361.345 144.463C361.345 144.463 363.825 144.269 364.89 145.068C365.955 145.867 369.863 149.654 374.788 150.682C379.713 151.711 383.028 147.512 384.069 147.307C385.122 147.089 386.271 148.577 386.271 148.577C386.271 148.577 385.823 146.859 383.246 146.084C383.246 146.084 382.206 150.041 375.066 148.686C367.927 147.331 364.878 144.16 364.878 144.16L364.515 143.507C364.539 143.507 362.519 143.931 361.345 144.463Z" fill="url(#paint53_linear_102_2478)"/>
<path opacity="0.6" d="M350.806 107.449L350.903 106.686C350.903 106.686 358.03 94.175 372.126 93.8362C386.223 93.4974 389.405 102.33 389.405 102.33L392.019 98.3616L386.065 86.2736L344.635 85.5839L334.543 93.7273L333.273 113.656L337.762 139.962L348.676 145.782L351.762 143.047C350.624 134.238 344.078 126.192 344.078 126.192L348.858 122.876C348.858 122.876 361.127 128.818 368.206 127.039C368.206 127.039 373.542 111.478 373.227 99.9588C373.227 99.9346 355.065 102.621 350.806 107.449Z" fill="url(#paint54_linear_102_2478)"/>
<path d="M350.177 108.368C350.177 108.368 350.866 103.867 358.465 102.064C366.935 100.056 373.82 98.3616 373.82 98.3616C373.82 98.3616 372.32 103.298 369.5 105.15C369.5 105.15 360.534 104.823 356.009 105.852C351.459 106.892 350.177 108.368 350.177 108.368Z" fill="#38368E"/>
<path d="M389.417 102.33C389.417 102.33 385.122 105.646 382.193 113.559C382.193 113.559 385.001 109.893 387.578 109.954C389.345 109.99 389.066 111.744 389.066 111.744C389.066 111.744 390.821 107.001 389.417 102.33Z" fill="#38368E"/>
<path d="M353.02 121.11C353.02 121.11 353.48 111.599 362.761 109.191C362.761 109.191 366.088 113.487 366.427 118.363C366.427 118.363 361.502 117.443 353.02 121.11Z" fill="url(#paint55_linear_102_2478)"/>
<path d="M379.616 124.897C379.616 124.897 380.366 117.322 384.722 114.527C384.722 114.527 387.687 116.754 387.384 123.094C387.372 123.082 384.771 122.15 379.616 124.897Z" fill="url(#paint56_linear_102_2478)"/>
<path d="M353.02 121.11C353.02 121.11 356.033 124.812 364.479 125.538C364.479 125.538 366.088 123.094 365.931 118.29C365.931 118.303 358.175 117.564 353.02 121.11Z" fill="#FFEBED"/>
<path d="M379.616 124.897V126.01C379.616 126.01 380.911 128.721 385.581 129.181C385.581 129.181 387.082 126.845 387.215 123.046C387.203 123.046 384.238 122.296 379.616 124.897Z" fill="#FFEBED"/>
<path d="M362.047 118.109C362.047 118.109 359.905 120.711 360.099 124.825C360.099 124.825 362.906 125.49 364.479 125.551C364.479 125.551 366.33 122.973 365.931 118.303C365.931 118.303 363.474 117.782 362.047 118.109Z" fill="#7F9EC9"/>
<path d="M384.033 123.167C384.033 123.167 382.823 124.462 382.593 128.442C382.593 128.442 384.25 129.168 385.569 129.168C385.569 129.168 387.263 126.761 387.203 123.034C387.203 123.046 386.017 122.586 384.033 123.167Z" fill="#7F9EC9"/>
<path d="M361.345 125.103C361.345 125.103 360.583 119.96 363.523 118L365.931 118.303C365.931 118.303 366.73 122.368 364.479 125.551C364.479 125.551 362.083 125.272 361.345 125.103Z" fill="#38368E"/>
<path d="M385.097 122.949C385.097 122.949 384.008 125.236 383.5 128.793C383.5 128.793 384.335 129.132 385.569 129.181C385.569 129.181 387.215 127.16 387.203 123.046C387.203 123.046 385.944 122.707 385.097 122.949Z" fill="#38368E"/>
<path d="M353.02 121.11C353.02 121.11 358.634 117.843 368.206 119.706L366.427 118.363C366.427 118.363 359.602 116.246 353.02 121.11Z" fill="#131163"/>
<path d="M379.616 124.897C379.616 124.897 384.117 122.501 389.369 123.772L387.203 122.175C387.203 122.175 383.682 121.63 379.616 124.897Z" fill="#131163"/>
<path d="M359.094 121.11C359.094 121.11 360.619 120.771 361.998 122.162C361.998 122.175 360.111 122.719 359.094 121.11Z" fill="white"/>
<path d="M381.673 125.551C381.673 125.551 384.069 125.091 384.892 126.18C384.904 126.18 383.621 127.051 381.673 125.551Z" fill="white"/>
<path d="M353.577 121.666C353.577 121.666 357.945 125.986 364.939 127.015L365.12 124.474L364.479 125.551C364.479 125.551 357.763 125.151 353.577 121.666Z" fill="#C6659C"/>
<path d="M379.616 126.01C379.616 126.01 380.39 128.805 386.077 130.064L385.896 128.697L385.581 129.181C385.569 129.181 381.528 128.66 379.616 126.01Z" fill="#C6659C"/>
<path d="M368.206 137.167C368.206 137.167 370.323 136.707 374.219 137.167C378.116 137.626 382.496 138.691 384.892 137.167C384.892 137.167 381.709 140.349 378.95 140.833C376.192 141.317 371.993 138.897 371.993 138.897L370.154 138.933C370.178 138.933 368.762 138.231 368.206 137.167Z" fill="#CB5F7D"/>
<path d="M370.444 138.921C370.444 138.921 371.4 138.304 372.199 138.461C372.997 138.619 373.82 139.78 373.82 139.78C373.82 139.78 372.126 138.885 370.444 138.921Z" fill="#9F4A8B"/>
<path d="M384.904 137.167C385.92 136.174 380.645 126.785 378.128 126.434C375.611 126.083 373.239 136.961 373.239 136.961C373.239 136.961 376.748 137.457 380.148 137.905C383.536 138.365 384.904 137.167 384.904 137.167Z" fill="#FFBCAF"/>
<path opacity="0.6" d="M388.667 107.594C387.239 107.412 382.193 113.547 382.193 113.547C382.193 113.547 378.987 123.481 379.616 126.422C380.245 129.374 388.038 130.935 388.038 130.935L388.364 130.415V130.403C387.965 129.471 387.626 128.491 387.408 127.426C386.791 124.377 388.11 117.419 389.066 111.72C389.066 111.72 389.381 110.546 389.417 109.457C389.453 108.538 389.32 107.667 388.667 107.594Z" fill="url(#paint57_linear_102_2478)"/>
<path d="M388.437 147.936C386.828 144.572 387.82 142.817 373.844 140.99C354.061 138.389 352.367 144.427 349.003 143.507C348.882 143.471 348.737 143.422 348.603 143.362C344.961 141.946 336.382 133.512 336.165 122.15C335.935 110.341 343.848 101.967 343.848 101.967C340.98 99.5595 339.831 92.5778 342.929 89.5891C346.026 86.6124 351.302 87.3021 364.249 88.6694C377.208 90.0489 377.208 89.2503 377.208 89.2503C381.322 90.303 383.682 94.1629 384.347 95.3971C384.48 95.6391 384.541 95.7843 384.541 95.7843L386.15 94.296C390.506 100.6 389.707 107.473 389.707 107.473C389.707 107.473 396.81 93.0255 395.999 90.9806C394.523 87.2053 390.421 81.6998 390.167 81.3489L390.155 81.3368C390.155 81.3368 389.006 70.3378 385.569 70.3378C382.133 70.3378 367.455 73.6532 367.455 73.6532C369.065 69.878 368.835 65.522 368.835 65.522C368.835 65.522 368.811 65.5462 368.774 65.5825C363.983 69.878 359.3 70.3499 352.669 73.4233C349.329 74.9842 347.756 76.4242 346.462 77.9246L346.014 78.457L345.542 79.0257C345.082 79.6065 344.61 80.1994 344.042 80.8044C344.017 80.8407 343.981 80.8649 343.969 80.877C343.945 80.9012 343.933 80.9133 343.933 80.9133C343.4 81.4941 342.771 82.087 342.009 82.7162C337.653 86.2615 328.07 88.6331 326.92 92.3842C325.771 96.1231 328.372 101.241 329.751 106.517C331.119 111.793 330.49 116.451 330.49 116.451C330.49 116.451 335.051 122.332 333.539 130.935C332.196 138.643 329.255 139.901 329.255 139.901C327.186 144.148 328.166 148.117 328.166 148.117C332.401 164.961 349.922 174.992 349.922 174.992C365.507 180.8 375.756 178.271 375.756 178.271C375.756 178.271 375.756 178.271 375.768 178.259C387.106 170.865 390.99 146.399 391.159 145.262C390.966 145.564 388.86 148.831 388.437 147.936ZM381.443 163.533C378.696 163.073 378.116 156.115 377.208 155.196C376.288 154.288 371.315 154.663 371.315 154.663C371.315 154.663 366.729 159.866 364.902 160.012C363.063 160.169 353.286 156.188 355.404 150.235C357.509 144.269 364.902 143.507 364.902 143.507C364.902 143.507 368.726 146.714 374.449 147.089C380.185 147.464 382.254 146.411 382.931 146.109C383.621 145.794 387.312 147.476 387.215 152.679C387.154 156.297 384.202 163.993 381.443 163.533Z" fill="url(#paint58_linear_102_2478)"/>
<path d="M380.729 128.515C380.729 128.515 385.666 134.65 385.194 136.961C384.674 139.49 378.95 140.833 378.95 140.833C378.95 140.833 383.536 139.248 384.48 136.961C384.492 136.961 383.306 132.314 380.729 128.515Z" fill="#D2726C"/>
<path opacity="0.6" d="M389.708 107.473C389.708 107.473 390.506 100.6 386.15 94.296C389.647 88.0523 390.155 81.3368 390.155 81.3368L390.167 81.3489C391.353 84.265 392.031 89.94 392.031 89.94L396 90.9806C396.81 93.0255 389.708 107.473 389.708 107.473Z" fill="url(#paint59_linear_102_2478)"/>
<path opacity="0.6" d="M384.347 95.3971C383.682 94.1629 381.322 90.303 377.208 89.2503C377.208 89.2503 377.208 90.0489 364.249 88.6694C351.302 87.3021 346.026 86.6124 342.929 89.5891C339.831 92.5778 340.98 99.5595 343.848 101.967C343.848 101.967 335.935 110.341 336.165 122.15C336.382 133.512 344.961 141.946 348.603 143.362L348.434 144.62C348.434 144.62 349.075 170.635 355.404 172.705C361.72 174.762 374.836 173.697 376.059 174.919C377.22 176.081 375.889 178.077 375.768 178.259C375.756 178.271 375.756 178.271 375.756 178.271C375.756 178.271 365.507 180.8 349.922 174.992C349.922 174.992 332.401 164.961 328.166 148.117C328.166 148.117 327.186 144.148 329.255 139.901C329.255 139.901 332.196 138.643 333.539 130.935C335.051 122.332 330.49 116.451 330.49 116.451C330.49 116.451 331.119 111.793 329.751 106.517C328.372 101.241 325.771 96.1231 326.92 92.3842C334.253 93.5337 339.069 89.7101 339.069 89.7101C339.069 89.7101 340.351 87.9313 346.026 87.0117C351.701 86.0921 374.51 88.3912 374.51 88.3912C374.51 88.3912 372.223 86.4914 367.407 85.233C362.857 84.0351 347.321 85.4266 345.651 85.5597C347.43 85.2451 365.047 82.2201 367.056 82.8251C369.186 83.4543 376.809 86.9512 376.809 86.9512C376.119 83.4543 369.295 75.0326 369.295 75.0326C369.295 75.0326 359.663 75.202 353.359 76.521C347.732 77.6947 344.647 80.272 344.042 80.8044L345.542 79.0257L346.014 78.457L346.462 77.9246L348.664 77.5495L359.723 73.0845C363.438 71.1001 368.193 66.1875 368.774 65.5825C368.811 65.5462 368.835 65.522 368.835 65.522C368.835 65.522 369.065 69.878 367.455 73.6532C376.797 72.5037 379.955 73.0845 379.955 73.0845C384.202 79.0983 384.347 95.3971 384.347 95.3971Z" fill="url(#paint60_linear_102_2478)"/>
<path opacity="0.5" d="M349.922 174.991C349.922 174.991 355.646 173.636 364.285 173.987C372.925 174.338 377.898 174.374 375.756 178.271C375.756 178.271 364.902 180.727 349.922 174.991Z" fill="url(#paint61_linear_102_2478)"/>
<path d="M379.955 73.0846C379.955 73.0846 385.206 71.0396 387.288 71.3663C387.288 71.3663 386.465 70.2652 385.606 70.0353C384.747 69.8054 367.456 73.6412 367.456 73.6412C367.456 73.6412 378.237 72.3948 379.955 73.0846Z" fill="url(#paint62_linear_102_2478)"/>
<path d="M369.295 75.0326C369.295 75.0326 368.883 80.756 367.056 82.8251L345.651 85.5597L339.371 84.4465C339.371 84.4465 341.803 83.4059 344.477 80.2962C347.139 77.1744 361.103 74.113 369.295 75.0326Z" fill="url(#paint63_linear_102_2478)"/>
<path d="M390.155 81.3368C390.155 81.3368 391.898 86.9633 392.031 89.94L396 90.9806C396 90.9806 394.79 86.7213 390.155 81.3368Z" fill="url(#paint64_linear_102_2478)"/>
<path opacity="0.8" d="M331.833 130.052C331.833 130.052 330.333 122.828 326.642 119.258C322.951 115.689 318.753 116.826 318.753 116.826C318.753 116.826 319.902 130.221 321.1 133.488C322.298 136.755 324.137 137.614 324.137 137.614C324.137 137.614 321.56 135.352 321.209 130.923C320.87 126.494 320.749 120.251 321.729 119.5C322.709 118.75 326.642 121.666 326.642 121.666C326.642 121.666 325.396 123.191 324.658 127.136C323.907 131.08 326.666 133.948 327.695 133.887C328.723 133.827 327.634 129.326 327.804 128.019C327.973 126.736 330.26 127.015 331.833 130.052Z" fill="url(#paint65_linear_102_2478)"/>
<path opacity="0.8" d="M328.142 121.086C328.142 121.086 324.113 123.735 324.549 129.156C324.984 134.589 328.082 134.347 328.094 133.21C328.106 132.072 327.501 129.132 327.816 127.474C328.13 125.817 330.804 126.567 330.804 126.567C330.804 126.567 329.062 122.259 328.142 121.086Z" fill="url(#paint66_linear_102_2478)"/>
<path d="M391.159 145.262C391.159 145.262 386.15 168.094 375.756 178.271C375.756 178.271 387.614 173.612 391.159 145.262Z" fill="#34C7FF"/>
<path d="M385.605 70.0474C385.605 70.0474 388.243 72.1044 388.752 79.2314C389.248 86.3705 386.162 94.296 386.162 94.296C386.162 94.296 390.131 88.367 390.518 81.8692C390.881 75.3715 387.699 70.8702 385.605 70.0474Z" fill="#34C7FF"/>
<path d="M353.613 84.991C353.613 84.991 359.724 87.0723 366.427 87.6652C373.13 88.2581 374.51 88.3912 374.51 88.3912C374.51 88.3912 371.812 85.7775 366.076 84.991C360.341 84.2045 353.613 84.991 353.613 84.991Z" fill="url(#paint67_linear_102_2478)"/>
<path d="M383.137 145.758C383.137 145.758 386.065 145.758 387.215 149.424C388.135 152.352 388.389 154.869 388.389 154.869L389.429 150.852C389.429 150.852 388.074 145.758 386.67 144.608C385.654 143.785 383.912 142.95 383.089 143.144L383.137 145.758Z" fill="url(#paint68_linear_102_2478)"/>
<path d="M375.26 142.091L375.756 146.447C375.756 146.447 379.314 146.738 381.673 145.758L382.097 143.12C382.097 143.12 377.559 141.982 375.26 142.091Z" fill="url(#paint69_linear_102_2478)"/>
<path d="M391.51 198.393C391.51 198.393 412.359 213.615 415.057 218.854C417.768 224.094 418.857 240.513 422.511 247.628C422.511 247.628 420.006 236 418.252 226.889C416.497 217.777 416.921 217.644 415.941 215.406C414.985 213.167 399.412 202.362 391.51 198.393Z" fill="#34C7FF"/>
<path d="M387.771 283.142C387.771 283.142 377.728 326.146 378.176 329.05C378.636 331.954 385.134 337.883 385.436 339.504C385.436 339.504 380.463 346.159 380.693 347.636C380.923 349.112 389.405 358.429 389.175 361.321C389.115 362.156 383.609 371.231 383.609 371.231C383.609 371.231 389.829 362.313 390.131 360.885C390.434 359.457 382.508 347.539 382.278 346.329C381.673 343.195 386.235 340.884 386.38 338.827C386.537 336.758 380.221 331.724 380.161 328.36C380.136 325.008 387.771 283.142 387.771 283.142Z" fill="#34C7FF"/>
<path d="M389.816 385.666C389.816 385.666 411.536 434.829 418.941 484.004C418.941 484.004 417.707 436.015 389.816 385.666Z" fill="#34C7FF"/>
<path d="M252.105 188.519C252.105 188.519 246.491 187.321 244.156 182.421C241.82 177.52 243.345 170.418 243.345 170.418C243.345 170.418 247.749 178.864 249.939 181.743C252.13 184.623 252.722 187.902 252.105 188.519Z" fill="#FFBCAF"/>
<path opacity="0.6" d="M425.512 162.891L429.408 273.97C429.566 278.375 433.183 281.872 437.588 281.872H628.927C633.367 281.872 636.997 278.326 637.106 273.886L639.78 161.512C639.889 156.89 636.162 153.103 631.54 153.127L433.631 154.421C429.021 154.446 425.343 158.281 425.512 162.891Z" fill="#36D1F7"/>
<path d="M628.927 282.162H437.588C432.99 282.162 429.263 278.568 429.106 273.97L425.209 162.891C425.125 160.58 425.972 158.39 427.569 156.72C429.166 155.051 431.32 154.119 433.643 154.107L631.564 152.812C633.863 152.824 636.054 153.695 637.675 155.353C639.296 157.011 640.168 159.189 640.107 161.5L637.433 273.873C637.3 278.52 633.573 282.162 628.927 282.162ZM631.601 153.417C631.589 153.417 631.564 153.417 631.552 153.417L433.631 154.712C431.477 154.724 429.481 155.583 427.992 157.132C426.504 158.681 425.73 160.713 425.802 162.867L429.699 273.946C429.844 278.217 433.304 281.557 437.576 281.557H628.914C633.162 281.557 636.695 278.109 636.792 273.861L639.466 161.488C639.514 159.334 638.716 157.313 637.203 155.777C635.727 154.252 633.742 153.417 631.601 153.417Z" fill="#744CA2"/>
<path opacity="0.6" d="M425.79 168.542H639.55L639.889 162.686C640.192 157.507 636.054 153.151 630.863 153.187L433.026 154.748C428.9 154.784 425.585 158.185 425.669 162.311L425.79 168.542Z" fill="url(#paint70_linear_102_2478)"/>
<path opacity="0.3" d="M436.547 177.508V241.784H501.972V177.17L436.547 177.508Z" fill="url(#paint71_linear_102_2478)"/>
<path opacity="0.3" d="M593.667 181.816H565.208V210.275H593.667V181.816Z" fill="url(#paint72_linear_102_2478)"/>
<path opacity="0.3" d="M627.245 181.816H598.785V210.275H627.245V181.816Z" fill="url(#paint73_linear_102_2478)"/>
<path opacity="0.3" d="M559.52 181.816H531.061V210.275H559.52V181.816Z" fill="url(#paint74_linear_102_2478)"/>
<path d="M627.245 226.877H554.463V233.689H627.245V226.877Z" fill="#D1D4FB"/>
<path d="M627.257 237.247H536.264V239.352H627.257V237.247Z" fill="#D1D4FB"/>
<path d="M554.535 213.905H537.123V216.011H554.535V213.905Z" fill="#D1D4FB"/>
<path d="M588.149 213.905H570.737V216.011H588.149V213.905Z" fill="#D1D4FB"/>
<path d="M621.727 213.905H604.315V216.011H621.727V213.905Z" fill="#D1D4FB"/>
<path d="M560.331 240.683H531.061V242.788H560.331V240.683Z" fill="#D1D4FB"/>
<path d="M627.257 244.071H536.264V246.176H627.257V244.071Z" fill="#D1D4FB"/>
<path d="M627.245 247.459H531.061V249.564H627.245V247.459Z" fill="#D1D4FB"/>
<path d="M627.245 250.847H531.061V252.952H627.245V250.847Z" fill="#D1D4FB"/>
<path d="M627.257 264.544H536.264V266.65H627.257V264.544Z" fill="#D1D4FB"/>
<path d="M627.245 267.932H531.061V270.038H627.245V267.932Z" fill="#D1D4FB"/>
<path d="M627.245 271.32H531.061V273.426H627.245V271.32Z" fill="#D1D4FB"/>
<path d="M623.385 254.235H531.061V256.34H623.385V254.235Z" fill="#D1D4FB"/>
<path d="M627.257 257.623H536.264V259.728H627.257V257.623Z" fill="#D1D4FB"/>
<path d="M608.998 261.011H531.061V263.117H608.998V261.011Z" fill="#D1D4FB"/>
<path d="M454.879 228.897C444.618 228.897 436.269 220.548 436.269 210.287C436.269 200.027 444.618 191.678 454.879 191.678C465.14 191.678 473.489 200.027 473.489 210.287C473.489 220.548 465.14 228.897 454.879 228.897ZM454.879 192.875C445.283 192.875 437.479 200.68 437.479 210.275C437.479 219.871 445.283 227.675 454.879 227.675C464.474 227.675 472.279 219.871 472.279 210.275C472.279 200.68 464.474 192.875 454.879 192.875Z" fill="#E0FFFF"/>
<path d="M454.879 220.391C460.466 220.391 464.995 215.862 464.995 210.275C464.995 204.689 460.466 200.16 454.879 200.16C449.292 200.16 444.763 204.689 444.763 210.275C444.763 215.862 449.292 220.391 454.879 220.391Z" fill="white"/>
<path d="M501.972 195.779C491.712 195.779 483.363 187.43 483.363 177.17C483.363 166.909 491.712 158.56 501.972 158.56C512.233 158.56 520.582 166.909 520.582 177.17C520.595 187.43 512.233 195.779 501.972 195.779ZM501.972 159.757C492.377 159.757 484.573 167.562 484.573 177.157C484.573 186.753 492.377 194.557 501.972 194.557C511.568 194.557 519.372 186.753 519.372 177.157C519.385 167.574 511.568 159.757 501.972 159.757Z" fill="#E0FFFF"/>
<path d="M511.355 178.664C512.172 173.469 508.623 168.595 503.428 167.778C498.233 166.96 493.359 170.509 492.541 175.704C491.724 180.899 495.273 185.774 500.468 186.591C505.663 187.408 510.537 183.859 511.355 178.664Z" fill="white"/>
<path d="M433.28 159.818L434.648 157.761L442.004 164.198L440.867 165.771L433.28 159.818Z" fill="white"/>
<path d="M442.186 159.818L440.831 157.761L433.474 164.198L434.599 165.771L442.186 159.818Z" fill="white"/>
<path d="M634.384 159.153H568.511V162.456H634.384V159.153Z" fill="white"/>
<path d="M221.855 111.466V140.059L256.05 140.349L256.51 110.559L221.855 111.466Z" fill="url(#paint75_linear_102_2478)"/>
<path d="M256.51 110.559L258.736 114.31L257.623 140.313L256.05 140.349L256.51 110.559Z" fill="url(#paint76_linear_102_2478)"/>
<path d="M227.966 121.122L231.124 116.536L248.185 130.862L245.571 134.359L227.966 121.122Z" fill="white"/>
<path d="M248.633 121.122L245.475 116.536L228.401 130.862L231.015 134.359L248.633 121.122Z" fill="white"/>
<path opacity="0.81" d="M301.619 447.921H184.623C179.42 447.921 175.161 443.759 175.04 438.556L172.85 342.59C172.729 337.217 177.048 332.789 182.433 332.789H304.245C309.641 332.789 313.973 337.242 313.828 342.638L311.19 438.604C311.057 443.795 306.81 447.921 301.619 447.921Z" fill="url(#paint77_linear_102_2478)"/>
<path d="M301.619 448.224H184.623C179.299 448.224 174.858 443.892 174.737 438.568L172.547 342.602C172.487 339.916 173.491 337.387 175.367 335.463C177.242 333.551 179.747 332.486 182.433 332.486H304.245C306.931 332.486 309.448 333.551 311.323 335.475C313.199 337.399 314.191 339.952 314.118 342.638L311.481 438.604C311.347 444.001 307.016 448.224 301.619 448.224ZM182.445 333.103C179.928 333.103 177.569 334.096 175.814 335.899C174.048 337.701 173.116 340.085 173.176 342.602L175.367 438.568C175.475 443.565 179.638 447.631 184.647 447.631H301.643C306.701 447.631 310.779 443.662 310.924 438.604L313.562 342.638C313.634 340.109 312.703 337.726 310.936 335.911C309.169 334.096 306.81 333.103 304.281 333.103H182.445Z" fill="#473DA2"/>
<path d="M265.924 352.427H204.395V355.065H265.924V352.427Z" fill="white"/>
<path d="M235.153 358.828H204.395V361.466H235.153V358.828Z" fill="white"/>
<path d="M235.153 364.189H204.395V366.826H235.153V364.189Z" fill="white"/>
<path d="M263.092 364.189H238.614V366.826H263.092V364.189Z" fill="white"/>
<path d="M253.993 369.537H204.395V372.175H253.993V369.537Z" fill="white"/>
<path d="M222.049 374.885H204.395V377.523H222.049V374.885Z" fill="white"/>
<path d="M256.207 390.93H225.679V393.568H256.207V390.93Z" fill="white"/>
<path d="M259.728 380.233H204.395V382.871H259.728V380.233Z" fill="white"/>
<path d="M246.963 385.582H204.395V388.219H246.963V385.582Z" fill="white"/>
<path d="M224.42 390.93H204.395V393.568H224.42V390.93Z" fill="white"/>
<path d="M235.153 396.278H204.395V398.916H235.153V396.278Z" fill="white"/>
<path d="M213.216 401.626H204.395V404.264H213.216V401.626Z" fill="white"/>
<path d="M248.875 401.626H216.858V404.264H248.875V401.626Z" fill="white"/>
<path d="M256.207 406.817H225.679V409.455H256.207V406.817Z" fill="white"/>
<path d="M224.42 406.817H204.395V409.455H224.42V406.817Z" fill="white"/>
<path d="M235.153 412.165H204.395V414.803H235.153V412.165Z" fill="white"/>
<path d="M213.216 417.514H204.395V420.151H213.216V417.514Z" fill="white"/>
<path d="M248.875 417.514H216.858V420.151H248.875V417.514Z" fill="white"/>
<path d="M615.556 131.697C615.556 134.686 613.136 137.106 610.147 137.106C607.158 137.106 604.738 134.686 604.738 131.697C604.738 128.709 607.158 126.289 610.147 126.289C613.136 126.289 615.556 128.709 615.556 131.697Z" fill="url(#paint78_linear_102_2478)"/>
<path d="M108.683 257.103C108.683 260.817 105.67 263.83 101.955 263.83C98.2407 263.83 95.2278 260.817 95.2278 257.103C95.2278 253.388 98.2407 250.375 101.955 250.375C105.67 250.375 108.683 253.388 108.683 257.103Z" fill="url(#paint79_linear_102_2478)"/>
<path d="M626.022 137.106C629.01 137.106 631.431 134.685 631.431 131.697C631.431 128.71 629.01 126.289 626.022 126.289C623.035 126.289 620.614 128.71 620.614 131.697C620.614 134.685 623.035 137.106 626.022 137.106Z" fill="url(#paint80_linear_102_2478)"/>
<path d="M277.334 172.705C279.446 172.705 281.158 170.993 281.158 168.881C281.158 166.769 279.446 165.057 277.334 165.057C275.222 165.057 273.51 166.769 273.51 168.881C273.51 170.993 275.222 172.705 277.334 172.705Z" fill="url(#paint81_linear_102_2478)"/>
<path d="M533.445 341.416C535.556 341.416 537.268 339.704 537.268 337.593C537.268 335.481 535.556 333.769 533.445 333.769C531.333 333.769 529.621 335.481 529.621 337.593C529.621 339.704 531.333 341.416 533.445 341.416Z" fill="url(#paint82_linear_102_2478)"/>
<path d="M135.932 379.132C137.817 379.132 139.345 377.604 139.345 375.72C139.345 373.835 137.817 372.308 135.932 372.308C134.048 372.308 132.52 373.835 132.52 375.72C132.52 377.604 134.048 379.132 135.932 379.132Z" fill="url(#paint83_linear_102_2478)"/>
<path opacity="0.73" d="M194.194 342.154H135.146C130.391 342.154 126.494 338.391 126.337 333.636L125.03 294.795C124.861 289.809 128.854 285.683 133.839 285.683H195.38C200.353 285.683 204.346 289.797 204.189 294.77L203.003 333.612C202.858 338.367 198.962 342.154 194.194 342.154Z" fill="url(#paint84_linear_102_2478)"/>
<path d="M194.194 342.457H135.146C130.209 342.457 126.204 338.585 126.035 333.648L124.728 294.807C124.643 292.314 125.551 289.954 127.281 288.164C129.011 286.373 131.347 285.381 133.839 285.381H195.38C197.873 285.381 200.196 286.361 201.926 288.152C203.657 289.942 204.576 292.29 204.492 294.782L203.306 333.624C203.161 338.573 199.156 342.457 194.194 342.457ZM133.839 285.998C131.516 285.998 129.338 286.917 127.717 288.587C126.095 290.257 125.248 292.459 125.333 294.795L126.64 333.636C126.797 338.246 130.536 341.864 135.146 341.864H194.194C198.817 341.864 202.556 338.234 202.701 333.612L203.887 294.77C203.959 292.447 203.1 290.257 201.491 288.587C199.869 286.917 197.703 285.998 195.38 285.998H133.839Z" fill="#953DA2"/>
<path d="M150.888 299.647L136.332 316.526L151.167 329.11V322.613L142.588 315.183L150.549 306.181L150.888 299.647Z" fill="white"/>
<path d="M176.48 300.409L191.048 317.277L176.214 329.861V323.375L184.793 315.945L175.246 305.842L176.48 300.409Z" fill="white"/>
<path d="M154.071 329.11L166.751 301.159H172.717L158.342 329.11H154.071Z" fill="white"/>
<path opacity="0.73" d="M591.477 422.075H517.606C511.664 422.075 506.788 417.368 506.582 411.427L504.937 362.845C504.731 356.614 509.716 351.447 515.96 351.447H592.953C599.172 351.447 604.158 356.59 603.976 362.809L602.488 411.391C602.318 417.344 597.442 422.075 591.477 422.075Z" fill="url(#paint85_linear_102_2478)"/>
<path d="M591.477 422.378H517.606C511.459 422.378 506.498 417.574 506.28 411.439L504.634 362.858C504.525 359.76 505.663 356.832 507.817 354.605C509.971 352.379 512.862 351.157 515.96 351.157H592.953C596.039 351.157 598.93 352.379 601.084 354.593C603.238 356.808 604.375 359.736 604.279 362.821L602.802 411.403C602.609 417.55 597.636 422.378 591.477 422.378ZM515.972 351.75C513.044 351.75 510.297 352.911 508.264 355.017C506.232 357.122 505.155 359.905 505.251 362.833L506.897 411.415C507.091 417.223 511.798 421.773 517.618 421.773H591.489C597.321 421.773 602.028 417.211 602.21 411.379L603.698 362.797C603.783 359.869 602.718 357.098 600.673 355.005C598.64 352.899 595.905 351.75 592.977 351.75H515.972Z" fill="#953DA2"/>
<path d="M587.411 359.264H519.76V399.448H587.411V359.264Z" fill="#D1D4FB"/>
<path d="M547.59 369.234V389.478L564.881 378.43L547.59 369.234Z" fill="white"/>
<path d="M587.411 406.853H519.76V410.532H587.411V406.853Z" fill="#D1D4FB"/>
<path d="M537.268 406.853H519.76V410.532H537.268V406.853Z" fill="white"/>
<path fill-rule="evenodd" clip-rule="evenodd" d="M470.185 346.571L466.652 356.674C468.612 351.084 471.42 347.466 470.185 346.571ZM466.664 356.662L463.131 366.766C464.014 366.5 464.704 362.253 466.664 356.662ZM470.185 346.571L466.652 356.674C468.612 351.084 471.42 347.466 470.185 346.571ZM466.664 356.662L463.131 366.766C464.014 366.5 464.704 362.253 466.664 356.662ZM476.853 365.423L480.277 367.371L483.98 357.267L480.011 356.602C480.083 356.227 480.156 355.852 480.204 355.477C480.495 353.746 480.591 352.052 480.543 350.443L484.693 347.841L482.806 338.936L478.825 342.735C478.268 341.598 477.591 340.605 476.792 339.771C476.574 339.529 476.344 339.311 476.102 339.105L478.534 333.491L472.061 331.385L470.512 337.048C469.06 337.048 467.596 337.411 466.132 338.077L465.418 332.728L458.291 338.125L459.937 342.868C458.654 344.332 457.48 346.026 456.464 347.926L453.027 345.99L449.325 356.094L453.294 356.759C452.87 358.889 452.713 360.958 452.773 362.918L448.623 365.52L450.511 374.425L454.492 370.626C455.205 372.078 456.113 373.312 457.214 374.256L454.782 379.882L461.147 382.363L462.127 378.781L462.792 376.337C464.244 376.337 465.72 375.974 467.185 375.321L467.886 380.669L475.013 375.272L473.368 370.529C474.372 369.38 475.316 368.085 476.175 366.657C476.417 366.221 476.635 365.822 476.853 365.423ZM466.664 356.662C464.704 362.24 466.664 368 463.131 366.766C459.586 365.52 458.291 359.99 460.251 354.424C462.211 348.846 466.664 345.337 470.197 346.571C473.743 347.805 468.612 351.084 466.664 356.662ZM470.185 346.571L466.652 356.674C468.612 351.084 471.42 347.466 470.185 346.571ZM466.664 356.662L463.131 366.766C464.014 366.5 464.704 362.253 466.664 356.662Z" fill="url(#paint86_linear_102_2478)"/>
<path fill-rule="evenodd" clip-rule="evenodd" d="M480.289 367.359L483.992 357.255L480.216 355.464L479.611 355.174L480.011 349.608L484.197 347.563L482.818 338.924L473.682 335.947L475.364 339.952L478.547 333.466L472.073 331.361L469.411 330.49L463.034 328.009L461.848 332.365L456.294 329.728L449.167 335.124L451.333 340.956L444.666 359.421L441.375 371.412L447.703 372.102L445.646 376.857L452.023 379.338L461.147 382.315L459.682 379.386L458.763 377.632L462.139 378.733L467.898 380.608L475.025 375.212L470.621 370.021L476.187 366.597L480.289 367.359ZM460.239 354.424C462.199 348.846 466.652 345.337 470.185 346.571L466.652 356.674L463.119 366.778C459.574 365.52 458.279 359.99 460.239 354.424Z" fill="url(#paint87_linear_102_2478)"/>
<path fill-rule="evenodd" clip-rule="evenodd" d="M471.153 364.382L474.856 354.279L470.887 353.613C471.311 351.483 471.468 349.414 471.42 347.466L475.57 344.865L473.682 335.959L469.701 339.759C469 338.306 468.08 337.072 466.979 336.128L469.411 330.514L463.034 328.034L461.389 334.071C459.937 334.084 458.46 334.434 457.008 335.088L456.307 329.74L449.18 335.124L450.825 339.867C449.543 341.332 448.369 343.038 447.352 344.937L443.916 343.001L440.213 353.105L444.182 353.77C443.759 355.9 443.601 357.969 443.65 359.917L439.5 362.519L441.387 371.424L445.368 367.625C446.07 369.077 446.989 370.311 448.091 371.255L445.658 376.869L452.035 379.35L453.681 373.312C455.133 373.3 456.609 372.949 458.061 372.296L458.763 377.644L465.89 372.259L464.244 367.516C465.527 366.052 466.701 364.346 467.717 362.446L471.153 364.382ZM453.983 363.789C450.438 362.543 449.155 357.025 451.103 351.447C453.052 345.869 457.517 342.36 461.062 343.594C464.607 344.841 465.89 350.358 463.942 355.936C461.994 361.514 457.529 365.023 453.983 363.789Z" fill="url(#paint88_linear_102_2478)"/>
<path opacity="0.5" fill-rule="evenodd" clip-rule="evenodd" d="M484.693 347.829L475.57 344.865L471.42 347.466L480.543 350.431L484.693 347.829Z" fill="#601734"/>
<path fill-rule="evenodd" clip-rule="evenodd" d="M475.025 375.224L465.89 372.247L464.244 367.516L473.38 370.493L475.025 375.224Z" fill="#B3D9FF"/>
<path opacity="0.5" fill-rule="evenodd" clip-rule="evenodd" d="M466.967 336.128L471.976 337.58L473.67 335.959L476.998 337.036L478.534 333.479L469.411 330.514L466.967 336.128Z" fill="#601734"/>
<path opacity="0.5" fill-rule="evenodd" clip-rule="evenodd" d="M453.669 373.324L458.448 375.309L458.049 372.296C458.061 372.296 455.484 373.663 453.669 373.324Z" fill="#601734"/>
<path opacity="0.5" fill-rule="evenodd" clip-rule="evenodd" d="M454.407 345.942L462.453 350.201C462.453 350.201 463.615 348.64 464.522 348.011C464.534 348.011 462.429 339.129 454.407 345.942Z" fill="#601734"/>
<path d="M269.578 44.7219L277.334 60.2705L272.155 62.6301L264.895 48.352L269.578 44.7219Z" fill="#FF1D9C"/>
<path d="M94.792 406.926L101.979 414.815L104.799 411.56L98.0106 404.095L94.792 406.926Z" fill="#6877FF"/>
<path d="M459.937 139.599L452.701 143.991L449.809 138.486L457.722 133.875L459.937 139.599Z" fill="#4F31E0"/>
<path d="M495.571 417.55L485.202 424.919L482.298 419.425L492.365 413.545L495.571 417.55Z" fill="#4F31E0"/>
<path fill-rule="evenodd" clip-rule="evenodd" d="M481.874 102.004L480.12 61.2748H533.445L531.255 101.883L481.874 102.004Z" fill="url(#paint89_linear_102_2478)"/>
<path fill-rule="evenodd" clip-rule="evenodd" d="M480.12 61.2748L478.522 63.6707L480.12 102.004H481.874L480.12 61.2748Z" fill="url(#paint90_linear_102_2478)"/>
<path d="M497.822 69.4061L489.461 68.5107L490.598 96.4135L497.822 95.7117V92.8198L493.635 92.9166L493.164 71.4026L497.822 71.5357V69.4061Z" fill="white"/>
<path d="M514.968 69.4061L523.329 68.5107L522.179 96.4135L514.968 95.7117V92.8198L519.142 92.9166L519.626 71.4026L514.968 71.5357V69.4061Z" fill="white"/>
<path fill-rule="evenodd" clip-rule="evenodd" d="M114.164 191.157L115.362 163.388H79.0137L80.502 191.073L114.164 191.157Z" fill="url(#paint91_linear_102_2478)"/>
<path fill-rule="evenodd" clip-rule="evenodd" d="M115.362 163.388L116.451 165.033L115.362 191.157H114.165L115.362 163.388Z" fill="url(#paint92_linear_102_2478)"/>
<path d="M101.363 168.978C101.363 168.978 105.343 168.82 106.057 169.147C106.759 169.474 105.876 175.972 105.876 175.972L107.461 177.436L105.973 178.876C105.973 178.876 106.045 185.458 105.114 186.003C104.17 186.547 100.975 186.003 100.975 186.003V184.357C100.975 184.357 103.589 184.526 104.025 184.176C104.46 183.825 104.412 178.077 104.412 178.077L105.114 177.303L104.412 176.468C104.412 176.468 104.545 172.366 104.46 171.241C104.412 170.49 101.363 170.454 101.363 170.454V168.978Z" fill="white"/>
<path d="M92.2269 168.978C92.2269 168.978 88.2459 168.82 87.532 169.147C86.8302 169.474 87.7135 175.972 87.7135 175.972L86.1284 177.436L87.6167 178.876C87.6167 178.876 87.5441 185.458 88.4758 186.003C89.4075 186.547 92.6141 186.003 92.6141 186.003V184.357C92.6141 184.357 90.0004 184.526 89.5648 184.176C89.1292 183.825 89.1776 178.077 89.1776 178.077L88.4758 177.303L89.1776 176.468C89.1776 176.468 89.0445 172.366 89.1292 171.241C89.1776 170.49 92.2269 170.454 92.2269 170.454V168.978Z" fill="white"/>
<path d="M420.914 105.67L412.008 82.3532L435.107 87.1812L420.914 105.67ZM412.964 83.176L421.095 104.448L434.042 87.5805L412.964 83.176Z" fill="#744CA2"/>
<path d="M492.089 425.212L484.263 435.888L484.751 436.246L492.577 425.57L492.089 425.212Z" fill="#744CA2"/>
<path d="M411.306 337.786L402.897 327.32L403.369 326.945L411.778 337.411L411.306 337.786Z" fill="#744CA2"/>
<path d="M151.965 411.258L135.182 399.085L135.533 398.601L152.316 410.774L151.965 411.258Z" fill="#744CA2"/>
<path d="M149.795 396.516L137.235 413.004L137.716 413.371L150.277 396.882L149.795 396.516Z" fill="#744CA2"/>
<path d="M114.292 226.526L114.011 227.061L124.872 232.768L125.153 232.232L114.292 226.526Z" fill="#744CA2"/>
<path d="M542.144 86.3584L541.697 85.9591L554.245 71.6447L554.692 72.044L542.144 86.3584Z" fill="#744CA2"/>
<path d="M298.362 120.978L297.821 121.247L303.431 132.525L303.973 132.255L298.362 120.978Z" fill="#744CA2"/>
<path d="M223.473 310.731L209.051 322.796L209.439 323.26L223.861 311.196L223.473 310.731Z" fill="#744CA2"/>
</g>
<defs>
<linearGradient id="paint0_linear_102_2478" x1="203.443" y1="295.098" x2="166.98" y2="217.056" gradientUnits="userSpaceOnUse">
<stop stop-color="#DBCCFF"/>
<stop offset="1" stop-color="#D1BBFF"/>
</linearGradient>
<linearGradient id="paint1_linear_102_2478" x1="204.861" y1="298.145" x2="168.398" y2="220.103" gradientUnits="userSpaceOnUse">
<stop stop-color="#B5A6E7"/>
<stop offset="1" stop-color="#7760BF"/>
</linearGradient>
<linearGradient id="paint2_linear_102_2478" x1="195.796" y1="278.743" x2="180.426" y2="245.847" gradientUnits="userSpaceOnUse">
<stop stop-color="#B5A6E7"/>
<stop offset="1" stop-color="#7760BF"/>
</linearGradient>
<linearGradient id="paint3_linear_102_2478" x1="176.065" y1="248.686" x2="185.402" y2="244.324" gradientUnits="userSpaceOnUse">
<stop stop-color="#8B8BE0"/>
<stop offset="1" stop-color="#A177B7"/>
</linearGradient>
<linearGradient id="paint4_linear_102_2478" x1="181.746" y1="248.673" x2="179.106" y2="243.021" gradientUnits="userSpaceOnUse">
<stop stop-color="white"/>
<stop offset="1" stop-color="#A177B7"/>
</linearGradient>
<linearGradient id="paint5_linear_102_2478" x1="202.302" y1="279.794" x2="185.359" y2="243.529" gradientUnits="userSpaceOnUse">
<stop/>
<stop offset="1" stop-color="white"/>
</linearGradient>
<linearGradient id="paint6_linear_102_2478" x1="339.165" y1="484.004" x2="339.165" y2="376.059" gradientUnits="userSpaceOnUse">
<stop stop-color="#6456C0"/>
<stop offset="1" stop-color="#5F2C95"/>
</linearGradient>
<radialGradient id="paint7_radial_102_2478" cx="0" cy="0" r="1" gradientUnits="userSpaceOnUse" gradientTransform="translate(286.602 445.182) rotate(12.9927) scale(21.6884 56.0366)">
<stop stop-color="#4B474B"/>
<stop offset="1"/>
</radialGradient>
<radialGradient id="paint8_radial_102_2478" cx="0" cy="0" r="1" gradientUnits="userSpaceOnUse" gradientTransform="translate(387.275 444.638) rotate(-15.6582) scale(21.6892 56.0351)">
<stop stop-color="#4B474B"/>
<stop offset="1"/>
</radialGradient>
<linearGradient id="paint9_linear_102_2478" x1="304.229" y1="446.108" x2="332.54" y2="446.108" gradientUnits="userSpaceOnUse">
<stop stop-color="#9E8CEF"/>
<stop offset="1" stop-color="#CAAFEE"/>
</linearGradient>
<linearGradient id="paint10_linear_102_2478" x1="370.387" y1="446.109" x2="342.073" y2="446.109" gradientUnits="userSpaceOnUse">
<stop stop-color="#9E8CEF"/>
<stop offset="1" stop-color="#CAAFEE"/>
</linearGradient>
<linearGradient id="paint11_linear_102_2478" x1="335.366" y1="484.004" x2="335.366" y2="376.059" gradientUnits="userSpaceOnUse">
<stop stop-color="#CCCCFF"/>
<stop offset="1" stop-color="#755CBB"/>
</linearGradient>
<linearGradient id="paint12_linear_102_2478" x1="347.933" y1="430.031" x2="347.933" y2="400.59" gradientUnits="userSpaceOnUse">
<stop stop-color="#CCCCFF"/>
<stop offset="1" stop-color="#755CBB"/>
</linearGradient>
<linearGradient id="paint13_linear_102_2478" x1="313.832" y1="419.205" x2="313.832" y2="390.36" gradientUnits="userSpaceOnUse">
<stop stop-color="#CCCCFF"/>
<stop offset="1" stop-color="#755CBB"/>
</linearGradient>
<linearGradient id="paint14_linear_102_2478" x1="343.088" y1="213.506" x2="343.088" y2="170.418" gradientUnits="userSpaceOnUse">
<stop stop-color="#D5CDF8"/>
<stop offset="1" stop-color="#F3EDFB"/>
</linearGradient>
<linearGradient id="paint15_linear_102_2478" x1="320.906" y1="191.92" x2="365.27" y2="191.92" gradientUnits="userSpaceOnUse">
<stop stop-color="#CCCCFF"/>
<stop offset="1" stop-color="#755CBB"/>
</linearGradient>
<linearGradient id="paint16_linear_102_2478" x1="330.403" y1="385.665" x2="330.403" y2="168.542" gradientUnits="userSpaceOnUse">
<stop stop-color="#9E8CEF"/>
<stop offset="1" stop-color="#CAAFEE"/>
</linearGradient>
<linearGradient id="paint17_linear_102_2478" x1="240.296" y1="250.369" x2="293.173" y2="250.369" gradientUnits="userSpaceOnUse">
<stop stop-color="#CCCCFF"/>
<stop offset="1" stop-color="#755CBB"/>
</linearGradient>
<linearGradient id="paint18_linear_102_2478" x1="238.66" y1="311.178" x2="238.66" y2="209.646" gradientUnits="userSpaceOnUse">
<stop stop-color="#9E8CEF"/>
<stop offset="1" stop-color="#DAC7F3"/>
</linearGradient>
<linearGradient id="paint19_linear_102_2478" x1="413.255" y1="281.915" x2="481.385" y2="281.915" gradientUnits="userSpaceOnUse">
<stop stop-color="#A999F1"/>
<stop offset="1" stop-color="#DAC7F3"/>
</linearGradient>
<linearGradient id="paint20_linear_102_2478" x1="216.499" y1="195.802" x2="216.499" y2="169.031" gradientUnits="userSpaceOnUse">
<stop offset="0.016" stop-color="#FFC2A9"/>
<stop offset="1" stop-color="#FF9595"/>
</linearGradient>
<linearGradient id="paint21_linear_102_2478" x1="233.356" y1="195.168" x2="233.356" y2="150.854" gradientUnits="userSpaceOnUse">
<stop stop-color="#FFEADB"/>
<stop offset="0.9944" stop-color="#C27CB6"/>
</linearGradient>
<linearGradient id="paint22_linear_102_2478" x1="231.918" y1="225.316" x2="231.918" y2="156.999" gradientUnits="userSpaceOnUse">
<stop offset="0.016" stop-color="#FFC2A9"/>
<stop offset="1" stop-color="#FF9595"/>
</linearGradient>
<linearGradient id="paint23_linear_102_2478" x1="219.701" y1="214.655" x2="241.182" y2="214.655" gradientUnits="userSpaceOnUse">
<stop offset="0.016" stop-color="#D1A1D6"/>
<stop offset="0.9944" stop-color="#BD89C4"/>
</linearGradient>
<linearGradient id="paint24_linear_102_2478" x1="482.789" y1="266.928" x2="482.789" y2="175.571" gradientUnits="userSpaceOnUse">
<stop offset="0.016" stop-color="#FFC2A9"/>
<stop offset="1" stop-color="#FF9595"/>
</linearGradient>
<linearGradient id="paint25_linear_102_2478" x1="493.582" y1="237.658" x2="493.582" y2="192.27" gradientUnits="userSpaceOnUse">
<stop stop-color="#FFEADB"/>
<stop offset="0.9944" stop-color="#C27CB6"/>
</linearGradient>
<linearGradient id="paint26_linear_102_2478" x1="502.536" y1="221.992" x2="502.536" y2="201.646" gradientUnits="userSpaceOnUse">
<stop stop-color="#FFB0B0"/>
<stop offset="0.984" stop-color="#FFC2A9"/>
</linearGradient>
<linearGradient id="paint27_linear_102_2478" x1="514.337" y1="225.125" x2="514.337" y2="213.968" gradientUnits="userSpaceOnUse">
<stop stop-color="#FFB0B0"/>
<stop offset="0.984" stop-color="#FFC2A9"/>
</linearGradient>
<linearGradient id="paint28_linear_102_2478" x1="466.616" y1="247.364" x2="487.367" y2="247.364" gradientUnits="userSpaceOnUse">
<stop offset="0.016" stop-color="#D1A1D6"/>
<stop offset="0.9944" stop-color="#BD89C4"/>
</linearGradient>
<linearGradient id="paint29_linear_102_2478" x1="437.736" y1="318.984" x2="437.736" y2="216.725" gradientUnits="userSpaceOnUse">
<stop stop-color="#CCCCFF"/>
<stop offset="1" stop-color="#755CBB"/>
</linearGradient>
<linearGradient id="paint30_linear_102_2478" x1="212.586" y1="298.382" x2="383.621" y2="298.382" gradientUnits="userSpaceOnUse">
<stop stop-color="#CCCCFF"/>
<stop offset="1" stop-color="#755CBB"/>
</linearGradient>
<linearGradient id="paint31_linear_102_2478" x1="363.372" y1="269.761" x2="396.064" y2="269.761" gradientUnits="userSpaceOnUse">
<stop stop-color="#CCEDFF"/>
<stop offset="1" stop-color="#755CBB"/>
</linearGradient>
<linearGradient id="paint32_linear_102_2478" x1="333.72" y1="327.136" x2="381.765" y2="327.136" gradientUnits="userSpaceOnUse">
<stop stop-color="#CCEDFF"/>
<stop offset="1" stop-color="#755CBB"/>
</linearGradient>
<linearGradient id="paint33_linear_102_2478" x1="335.945" y1="348.86" x2="387.275" y2="348.86" gradientUnits="userSpaceOnUse">
<stop stop-color="#CCEDFF"/>
<stop offset="1" stop-color="#755CBB"/>
</linearGradient>
<linearGradient id="paint34_linear_102_2478" x1="291.77" y1="295.073" x2="291.77" y2="237.464" gradientUnits="userSpaceOnUse">
<stop stop-color="#CCEDFF"/>
<stop offset="1" stop-color="#755CBB"/>
</linearGradient>
<linearGradient id="paint35_linear_102_2478" x1="296.407" y1="299.916" x2="296.407" y2="256.246" gradientUnits="userSpaceOnUse">
<stop stop-color="#CCEDFF"/>
<stop offset="1" stop-color="#755CBB"/>
</linearGradient>
<linearGradient id="paint36_linear_102_2478" x1="227.391" y1="244.092" x2="227.391" y2="211.098" gradientUnits="userSpaceOnUse">
<stop stop-color="#CCEDFF"/>
<stop offset="1" stop-color="#755CBB"/>
</linearGradient>
<linearGradient id="paint37_linear_102_2478" x1="254.09" y1="215.037" x2="267.387" y2="215.037" gradientUnits="userSpaceOnUse">
<stop stop-color="#CCEDFF"/>
<stop offset="1" stop-color="#755CBB"/>
</linearGradient>
<linearGradient id="paint38_linear_102_2478" x1="398.634" y1="295.073" x2="398.634" y2="233.919" gradientUnits="userSpaceOnUse">
<stop stop-color="#CCCCFF"/>
<stop offset="1" stop-color="#755CBB"/>
</linearGradient>
<linearGradient id="paint39_linear_102_2478" x1="467.388" y1="281.92" x2="467.388" y2="249.964" gradientUnits="userSpaceOnUse">
<stop stop-color="#CCCCFF"/>
<stop offset="1" stop-color="#755CBB"/>
</linearGradient>
<linearGradient id="paint40_linear_102_2478" x1="431.145" y1="280.492" x2="431.145" y2="256.062" gradientUnits="userSpaceOnUse">
<stop stop-color="#CCCCFF"/>
<stop offset="1" stop-color="#755CBB"/>
</linearGradient>
<linearGradient id="paint41_linear_102_2478" x1="220.485" y1="246.198" x2="220.485" y2="237.125" gradientUnits="userSpaceOnUse">
<stop stop-color="#CCEDFF"/>
<stop offset="1" stop-color="#755CBB"/>
</linearGradient>
<linearGradient id="paint42_linear_102_2478" x1="244.72" y1="273.858" x2="244.72" y2="224.275" gradientUnits="userSpaceOnUse">
<stop stop-color="#CCCCFF"/>
<stop offset="1" stop-color="#755CBB"/>
</linearGradient>
<linearGradient id="paint43_linear_102_2478" x1="372.283" y1="238.958" x2="372.283" y2="201.646" gradientUnits="userSpaceOnUse">
<stop stop-color="#CCEDFF"/>
<stop offset="1" stop-color="#755CBB"/>
</linearGradient>
<linearGradient id="paint44_linear_102_2478" x1="323.401" y1="233.914" x2="323.401" y2="182.416" gradientUnits="userSpaceOnUse">
<stop stop-color="#CCEDFF"/>
<stop offset="1" stop-color="#755CBB"/>
</linearGradient>
<linearGradient id="paint45_linear_102_2478" x1="306.012" y1="243.333" x2="392.025" y2="243.333" gradientUnits="userSpaceOnUse">
<stop stop-color="#8642A0"/>
<stop offset="1" stop-color="#6456C0"/>
</linearGradient>
<linearGradient id="paint46_linear_102_2478" x1="313.429" y1="193.698" x2="369.404" y2="193.698" gradientUnits="userSpaceOnUse">
<stop stop-color="#CCCCFF"/>
<stop offset="1" stop-color="#755CBB"/>
</linearGradient>
<linearGradient id="paint47_linear_102_2478" x1="457.324" y1="278.277" x2="457.324" y2="245.883" gradientUnits="userSpaceOnUse">
<stop stop-color="#CCCCFF"/>
<stop offset="1" stop-color="#755CBB"/>
</linearGradient>
<linearGradient id="paint48_linear_102_2478" x1="411.536" y1="314.82" x2="411.536" y2="216.725" gradientUnits="userSpaceOnUse">
<stop stop-color="#CCCCFF"/>
<stop offset="1" stop-color="#755CBB"/>
</linearGradient>
<linearGradient id="paint49_linear_102_2478" x1="306.072" y1="360.897" x2="306.072" y2="332.777" gradientUnits="userSpaceOnUse">
<stop stop-color="#CCCCFF"/>
<stop offset="1" stop-color="#755CBB"/>
</linearGradient>
<linearGradient id="paint50_linear_102_2478" x1="360.698" y1="353.173" x2="360.698" y2="339.516" gradientUnits="userSpaceOnUse">
<stop stop-color="#CCCCFF"/>
<stop offset="1" stop-color="#755CBB"/>
</linearGradient>
<linearGradient id="paint51_linear_102_2478" x1="360.096" y1="177.644" x2="360.096" y2="84.2225" gradientUnits="userSpaceOnUse">
<stop offset="0.016" stop-color="#FFC2A9"/>
<stop offset="1" stop-color="#FF9595"/>
</linearGradient>
<linearGradient id="paint52_linear_102_2478" x1="325.269" y1="139.946" x2="325.269" y2="112.403" gradientUnits="userSpaceOnUse">
<stop offset="0.016" stop-color="#FFC2A9"/>
<stop offset="1" stop-color="#FF9595"/>
</linearGradient>
<linearGradient id="paint53_linear_102_2478" x1="373.08" y1="150.362" x2="374.235" y2="144.349" gradientUnits="userSpaceOnUse">
<stop stop-color="#E1616A"/>
<stop offset="1" stop-color="#FF8883"/>
</linearGradient>
<linearGradient id="paint54_linear_102_2478" x1="362.656" y1="145.761" x2="362.656" y2="85.5794" gradientUnits="userSpaceOnUse">
<stop stop-color="#FFEADB"/>
<stop offset="0.9944" stop-color="#C27CB6"/>
</linearGradient>
<linearGradient id="paint55_linear_102_2478" x1="359.723" y1="121.115" x2="359.723" y2="109.194" gradientUnits="userSpaceOnUse">
<stop stop-color="#CF6074"/>
<stop offset="1" stop-color="#F37270"/>
</linearGradient>
<linearGradient id="paint56_linear_102_2478" x1="383.502" y1="124.898" x2="383.502" y2="114.524" gradientUnits="userSpaceOnUse">
<stop stop-color="#CF6074"/>
<stop offset="1" stop-color="#FF817F"/>
</linearGradient>
<linearGradient id="paint57_linear_102_2478" x1="384.478" y1="130.935" x2="384.478" y2="107.59" gradientUnits="userSpaceOnUse">
<stop stop-color="#FFEADB"/>
<stop offset="0.9944" stop-color="#C27CB6"/>
</linearGradient>
<linearGradient id="paint58_linear_102_2478" x1="361.349" y1="178.819" x2="361.349" y2="65.522" gradientUnits="userSpaceOnUse">
<stop stop-color="#2E33A0"/>
<stop offset="1" stop-color="#0665A5"/>
</linearGradient>
<linearGradient id="paint59_linear_102_2478" x1="391.107" y1="107.473" x2="391.107" y2="81.3368" gradientUnits="userSpaceOnUse">
<stop stop-color="#FFEADB"/>
<stop offset="0.9944" stop-color="#8860C7"/>
</linearGradient>
<linearGradient id="paint60_linear_102_2478" x1="355.491" y1="178.819" x2="355.491" y2="65.522" gradientUnits="userSpaceOnUse">
<stop stop-color="#CCC2DB"/>
<stop offset="0.9944" stop-color="#8860C7"/>
</linearGradient>
<linearGradient id="paint61_linear_102_2478" x1="363.088" y1="178.792" x2="363.088" y2="173.924" gradientUnits="userSpaceOnUse">
<stop stop-color="#776D7E"/>
<stop offset="1" stop-color="#9D68C2"/>
</linearGradient>
<linearGradient id="paint62_linear_102_2478" x1="377.369" y1="73.6533" x2="377.369" y2="70.0369" gradientUnits="userSpaceOnUse">
<stop stop-color="#1F77D1"/>
<stop offset="1" stop-color="#0686C9"/>
</linearGradient>
<linearGradient id="paint63_linear_102_2478" x1="354.331" y1="85.5597" x2="354.331" y2="74.8674" gradientUnits="userSpaceOnUse">
<stop stop-color="#1F77D1"/>
<stop offset="1" stop-color="#0686C9"/>
</linearGradient>
<linearGradient id="paint64_linear_102_2478" x1="393.077" y1="90.9806" x2="393.077" y2="81.3368" gradientUnits="userSpaceOnUse">
<stop stop-color="#1F77D1"/>
<stop offset="1" stop-color="#0686C9"/>
</linearGradient>
<linearGradient id="paint65_linear_102_2478" x1="329.28" y1="133.418" x2="316.943" y2="118.304" gradientUnits="userSpaceOnUse">
<stop stop-color="#FFEADB"/>
<stop offset="0.9944" stop-color="#B060F4"/>
</linearGradient>
<linearGradient id="paint66_linear_102_2478" x1="330.572" y1="131.471" x2="324.502" y2="124.035" gradientUnits="userSpaceOnUse">
<stop stop-color="#FFEADB"/>
<stop offset="0.9944" stop-color="#B060F4"/>
</linearGradient>
<linearGradient id="paint67_linear_102_2478" x1="353.617" y1="86.5161" x2="374.51" y2="86.5161" gradientUnits="userSpaceOnUse">
<stop stop-color="#1F77D1"/>
<stop offset="1" stop-color="#0686C9"/>
</linearGradient>
<linearGradient id="paint68_linear_102_2478" x1="383.086" y1="148.999" x2="389.423" y2="148.999" gradientUnits="userSpaceOnUse">
<stop stop-color="#1F77D1"/>
<stop offset="1" stop-color="#0686C9"/>
</linearGradient>
<linearGradient id="paint69_linear_102_2478" x1="375.262" y1="144.287" x2="382.097" y2="144.287" gradientUnits="userSpaceOnUse">
<stop stop-color="#1F77D1"/>
<stop offset="1" stop-color="#0686C9"/>
</linearGradient>
<linearGradient id="paint70_linear_102_2478" x1="425.676" y1="160.866" x2="639.919" y2="160.866" gradientUnits="userSpaceOnUse">
<stop stop-color="#9D68C2"/>
<stop offset="1" stop-color="#AEC2FF"/>
</linearGradient>
<linearGradient id="paint71_linear_102_2478" x1="469.259" y1="241.784" x2="469.259" y2="177.166" gradientUnits="userSpaceOnUse">
<stop stop-color="#CCEDFF"/>
<stop offset="1" stop-color="#9D68C2"/>
</linearGradient>
<linearGradient id="paint72_linear_102_2478" x1="579.441" y1="210.28" x2="579.441" y2="181.817" gradientUnits="userSpaceOnUse">
<stop stop-color="#CCEDFF"/>
<stop offset="1" stop-color="#9D68C2"/>
</linearGradient>
<linearGradient id="paint73_linear_102_2478" x1="613.023" y1="210.28" x2="613.023" y2="181.817" gradientUnits="userSpaceOnUse">
<stop stop-color="#CCEDFF"/>
<stop offset="1" stop-color="#9D68C2"/>
</linearGradient>
<linearGradient id="paint74_linear_102_2478" x1="545.298" y1="210.28" x2="545.298" y2="181.817" gradientUnits="userSpaceOnUse">
<stop stop-color="#CCEDFF"/>
<stop offset="1" stop-color="#9D68C2"/>
</linearGradient>
<linearGradient id="paint75_linear_102_2478" x1="239.18" y1="140.346" x2="239.18" y2="110.553" gradientUnits="userSpaceOnUse">
<stop stop-color="#D93DE3"/>
<stop offset="1" stop-color="#FF6DBA"/>
</linearGradient>
<linearGradient id="paint76_linear_102_2478" x1="257.391" y1="140.346" x2="257.391" y2="110.553" gradientUnits="userSpaceOnUse">
<stop stop-color="#A242EA"/>
<stop offset="1" stop-color="#FE117E"/>
</linearGradient>
<linearGradient id="paint77_linear_102_2478" x1="234.01" y1="454.201" x2="250.121" y2="325.923" gradientUnits="userSpaceOnUse">
<stop stop-color="#067EFF"/>
<stop offset="1" stop-color="#3E37A0"/>
</linearGradient>
<linearGradient id="paint78_linear_102_2478" x1="610.146" y1="137.104" x2="610.146" y2="126.29" gradientUnits="userSpaceOnUse">
<stop stop-color="#459FFF"/>
<stop offset="1" stop-color="#A96DFF"/>
</linearGradient>
<linearGradient id="paint79_linear_102_2478" x1="101.95" y1="263.828" x2="101.95" y2="250.369" gradientUnits="userSpaceOnUse">
<stop stop-color="#459FFF"/>
<stop offset="1" stop-color="#A96DFF"/>
</linearGradient>
<linearGradient id="paint80_linear_102_2478" x1="626.028" y1="137.104" x2="626.028" y2="126.29" gradientUnits="userSpaceOnUse">
<stop stop-color="#B31A8F"/>
<stop offset="1" stop-color="#FE117E"/>
</linearGradient>
<linearGradient id="paint81_linear_102_2478" x1="277.338" y1="172.699" x2="277.338" y2="165.053" gradientUnits="userSpaceOnUse">
<stop stop-color="#B31A8F"/>
<stop offset="1" stop-color="#FE117E"/>
</linearGradient>
<linearGradient id="paint82_linear_102_2478" x1="533.445" y1="341.42" x2="533.445" y2="333.773" gradientUnits="userSpaceOnUse">
<stop stop-color="#8642A0"/>
<stop offset="1" stop-color="#6456C0"/>
</linearGradient>
<linearGradient id="paint83_linear_102_2478" x1="135.93" y1="379.135" x2="135.93" y2="372.299" gradientUnits="userSpaceOnUse">
<stop stop-color="#8642A0"/>
<stop offset="1" stop-color="#6456C0"/>
</linearGradient>
<linearGradient id="paint84_linear_102_2478" x1="164.613" y1="342.156" x2="164.613" y2="285.694" gradientUnits="userSpaceOnUse">
<stop stop-color="#D906E3"/>
<stop offset="1" stop-color="#FF6DF9"/>
</linearGradient>
<linearGradient id="paint85_linear_102_2478" x1="554.467" y1="422.077" x2="554.467" y2="351.444" gradientUnits="userSpaceOnUse">
<stop stop-color="#D906E3"/>
<stop offset="1" stop-color="#FF6DF9"/>
</linearGradient>
<linearGradient id="paint86_linear_102_2478" x1="462.819" y1="382.58" x2="470.438" y2="331.135" gradientUnits="userSpaceOnUse">
<stop stop-color="#1852A0"/>
<stop offset="1" stop-color="#067ED3"/>
</linearGradient>
<linearGradient id="paint87_linear_102_2478" x1="457.135" y1="381.252" x2="470.897" y2="330.141" gradientUnits="userSpaceOnUse">
<stop stop-color="#1852A0"/>
<stop offset="1" stop-color="#067ED3"/>
</linearGradient>
<linearGradient id="paint88_linear_102_2478" x1="450.672" y1="379.143" x2="458.796" y2="327.359" gradientUnits="userSpaceOnUse">
<stop stop-color="#188DC1"/>
<stop offset="1" stop-color="#06BFE7"/>
</linearGradient>
<linearGradient id="paint89_linear_102_2478" x1="498.949" y1="106.599" x2="512.66" y2="55.6776" gradientUnits="userSpaceOnUse">
<stop stop-color="#188DC1"/>
<stop offset="1" stop-color="#06BFE7"/>
</linearGradient>
<linearGradient id="paint90_linear_102_2478" x1="475.381" y1="100.724" x2="485.606" y2="62.7515" gradientUnits="userSpaceOnUse">
<stop stop-color="#1852A0"/>
<stop offset="1" stop-color="#067ED3"/>
</linearGradient>
<linearGradient id="paint91_linear_102_2478" x1="102.526" y1="194.292" x2="93.1786" y2="159.578" gradientUnits="userSpaceOnUse">
<stop stop-color="#188DC1"/>
<stop offset="1" stop-color="#06BFE7"/>
</linearGradient>
<linearGradient id="paint92_linear_102_2478" x1="118.593" y1="190.288" x2="111.623" y2="164.4" gradientUnits="userSpaceOnUse">
<stop stop-color="#1852A0"/>
<stop offset="1" stop-color="#067ED3"/>
</linearGradient>
<clipPath id="clip0_102_2478">
<rect width="726.005" height="500" fill="white"/>
</clipPath>
</defs>
</svg>
